/* XPM */
static char *result[] = {
/* columns rows colors chars-per-pixel */
"64 64 188 2 ",
"   c #000001",
".  c #090201",
"X  c #050409",
"o  c #1C0C0A",
"O  c #170000",
"+  c #030013",
"@  c #1B140D",
"#  c #272825",
"$  c #323638",
"%  c #53473E",
"&  c #3E3D46",
"*  c #3A525E",
"=  c #1C4C7C",
"-  c #3E4E64",
";  c #26497B",
":  c #344F7B",
">  c #36527F",
",  c #4A4C48",
"<  c #51534E",
"1  c #434E5D",
"2  c #484D50",
"3  c #47515C",
"4  c #49525C",
"5  c #555752",
"6  c #555853",
"7  c #595B56",
"8  c #5D5E5A",
"9  c #61635F",
"0  c #444E63",
"q  c #4B4D62",
"w  c #445164",
"e  c #445169",
"r  c #4B5667",
"t  c #545C6D",
"y  c #576372",
"u  c #6C6E6B",
"i  c #656663",
"p  c #6F716C",
"a  c #70706E",
"s  c #656E79",
"d  c #737570",
"f  c #797B75",
"g  c #787B79",
"h  c #BC5D16",
"j  c #BF600D",
"k  c #AB6127",
"l  c #B16A2F",
"z  c #B97738",
"x  c #CB5D03",
"c  c #C75D09",
"v  c #D35B01",
"b  c #D15F09",
"n  c #CC6110",
"m  c #CD701C",
"M  c #D07020",
"N  c #B2704C",
"B  c #9F7F64",
"V  c #C17B42",
"C  c #D28335",
"Z  c #BC8C5D",
"A  c #82837E",
"S  c #89897D",
"D  c #90887D",
"F  c #99866E",
"G  c #D9854D",
"H  c #E29F4B",
"J  c #F49D49",
"K  c #DBA05F",
"L  c #CC9462",
"P  c #D9A369",
"I  c #F2AB73",
"U  c #F4B47A",
"Y  c #F6BA7D",
"T  c #FBBC7A",
"R  c #F8B875",
"E  c #FDC47C",
"W  c #FECC7B",
"Q  c #1F4886",
"!  c #1D4B8C",
"~  c #134887",
"^  c #1D5092",
"/  c #224784",
"(  c #224B85",
")  c #224B8A",
"_  c #294B88",
"`  c #214C90",
"'  c #26558A",
"]  c #3C69A0",
"[  c #475B86",
"{  c #4E6B95",
"}  c #6D7484",
"|  c #757D8A",
" . c #798897",
".. c #5C81AF",
"X. c #5785B9",
"o. c #7391BB",
"O. c #5B87C0",
"+. c #6B97C7",
"@. c #729ECD",
"#. c #7A9DCA",
"$. c #779EC5",
"%. c #729ED1",
"&. c #749DDB",
"*. c #638ACC",
"=. c #6CA1CA",
"-. c #73A0CE",
";. c #6EA0D6",
":. c #74A1D1",
">. c #77A1D8",
",. c #848782",
"<. c #8B8784",
"1. c #878984",
"2. c #888A85",
"3. c #848B8A",
"4. c #8B8D89",
"5. c #818C92",
"6. c #8F9398",
"7. c #999A99",
"8. c #AF9B86",
"9. c #8F97A5",
"0. c #969DA5",
"q. c #97A2AF",
"w. c #A9AAA9",
"e. c #B8B7B7",
"r. c #DCB187",
"t. c #ECB284",
"y. c #FABE81",
"u. c #FDC584",
"i. c #FEC986",
"p. c #FEC789",
"a. c #F5CB8C",
"s. c #FDCA8A",
"d. c #F6C689",
"f. c #EAC491",
"g. c #FDCD91",
"h. c #FCCB98",
"j. c #F7C894",
"k. c #F5D8BF",
"l. c #88A7C7",
"z. c #93B1C3",
"x. c #94B1D9",
"c. c #A5B6CC",
"v. c #A6B9CF",
"b. c #A9B9CD",
"n. c #ABB7C8",
"m. c #A6B8D0",
"M. c #AABBD3",
"N. c #A7B5D2",
"B. c #B3C4DA",
"V. c #B6CBDD",
"C. c #B6CAE2",
"Z. c #BDCDE8",
"A. c #BCD3ED",
"S. c #BFD1E6",
"D. c #BDD9F4",
"F. c #C3C4C3",
"G. c #CCCECF",
"H. c #DCDCDB",
"J. c #D6DADE",
"K. c #F8DEC6",
"L. c #E8DCD7",
"P. c #E2E2DF",
"I. c #C5D6EB",
"U. c #C5DAEC",
"Y. c #C9DAEE",
"T. c #CAD7E8",
"R. c #D5DDE8",
"E. c #CADDF3",
"W. c #C5DAF3",
"Q. c #DDE4E8",
"!. c #C5E0F7",
"~. c #E3E3E2",
"^. c #ECECEC",
"/. c #E6E6E8",
"(. c #E5EDF4",
"). c #EBEEF5",
"_. c #EAEFF9",
"`. c #E2ECFB",
"'. c #EBF1F6",
"]. c #E7F1FA",
"[. c #EAF1F9",
"{. c #F4F4F4",
"}. c #FEFBF5",
"|. c #F2F7FC",
" X c #F3FAFD",
".X c #FEFEFE",
"XX c #F7F4ED",
"oX c None",
/* pixels */
"oXoXoXoXoXoXoXoXoXoXoXoXoXoXoXoXoXoXoXoXoXoXoXoXoXoXoXoXoXoXoXoXoXoXoXoXoXoXoXoXoXoXoXoXoXoXoXoXoXoXoXoXoXoXoXoXoXoXoXoXoXoXoXoX",
"oXoXoXoXoXoXoXoXoXoXoXoXoXoXoXoXoXoXoXoXoXoXoXoXoXoXoXoXoXoXoXoXoXoXoXoXoXoXoXoXoXoXoXoXoXoXoXoXoXoXoXoXoXoXoXoXoXoXoXoXoXoXoXoX",
"oXoXoXoXoXoXoXoXoXoXoXoXoXoXoXoXoXoXoXoXoXoXoXoXoXoXoXoXoXoXoXoXoXoXoXoXoXoXoXoXoXoXoXoXoXoXoXoXoXoXoXoXoXoXoXoXoXoXoXoXoXoXoXoX",
"oXoXoXoXoXoXoXoXoXoXoXoXoXoXoXoXoXoXoXoXoXoXoX0 e w oXoXoXoXoXoXoXoXoXoXoXoXoXoXoXoXoXoXoXoXoXoXoXoXoXoXoXoXoXoXoXoXoXoXoXoXoXoX",
"oXoXoXoXoXoXoXoXoXoXoXoXoXoXoXoXoXoXoXoXoXoXe t .X Xw 3 oXoXoXoXoXoXoXoXoXoXoXoXoXoXoXoXoXoXoXoXoXoXoXoXoXoXoXoXoXoXoXoXoXoXoXoX",
"oXoXoXoXoXoXoXoXoXoXoXoXoXoX~.oXoXoXoXoXoX0 y [..X.X.Xe oXoXoXoXoXoXoXoXoXoXoXoXoXoXoXoXoXoXoXoXoXoXoXoXoXoXoXoXoXoXoXoXoXoXoXoX",
"oXoXoXoXoXoXoXoXoXoXoXoXoXoX~.oXoXoXoXoXoXw [.[.[.Q.- oXoXoXoXoXoXoXoXoXoXoXoXoXoXoXoXoXoXoXoXoXoXoXoXoXoXoXoXoXoXoXoXoXoXoXoXoX",
"oXoXoXoXoXoXoXoXoXoXoXoXoXoX.XoXoXoXoXoX0 '.[.[.[.r oXoXoXoXoXoXoXoXoXoXoXoXoXoXoXoXoXoXoXoXoXoXoXoXoXoXoXoXoXoXoXoXoXoXoXoXoXoX",
"oXoXoXoXoXoXoXoXoXoXoXoXoXoX.XoXoXoXoXoXe [._.'. Xq s w e | oXoXoXoXoXoXoXoXoXoXoXoXoXoXoXoXoXoXoXoXoXoXoXoXoXoXoXoXoXoXoXoXoXoX",
"oXoXoXoXoXoXoXoXoXoXoXoXoXoX.XoXoXoXoXoXe '.[.q.[._.|..X'.y w ~.oXoXoXoXoXoXoXoXoXoXoXoXoXoXoXoXoXoXoXoXoXoXoXoXoXoXoXoXoXoXoXoX",
"oXoXoXoXoXoXoXoXoXoXoXoXoXoX~.oXoXoXoXoXw _._._.].[.[.[.{..X`.4 oXoXoXoXoXoXoXoXoXoXoXoXoXoXoXoXoXoXoXoXoXoXoXoXoXoXoXoXoXoXoXoX",
"oXoXoXoXoXoXoXoXoXoXoXoXoXoX~.oXoXoXoXoX0 [.]._.[.[.[.[.[.'..X} - e } oXoXoXoXoXoXoXoXoXoXoXoXoXoXoXoXoXoXoXoXoXoXoXoXoXoX/.oXoX",
"oXoXoXoXoXoXoXoXoXoXoXoXoXoXoXoXoXoXoXoX- [.).].[.[.).].'.[..X[.'._.- oXoXoXoXoXoXoXoXoXoXoXoXoXoXoXoXoXoXoXU.-.-.@.-..XoXoXoXoX",
"oXoXoXoXoXoXoXoXoXoXoXoXoXoXoXoXoXoXoX.Xw [.[.'.[.].[.[..X'..X.X2 e 1 oXoXoXoXoXoXoXoXoXoXoXoXoXoXoXoXoXoXW.:.%.%.>.-.-..XoXoXoX",
"oXoXoXoXoXoXoXoXoXoXoXoXoXoXoXoXoXoXoX.X.X].].'.[.[.[.[..X.X X.X.X}..XL.oXoXoXoXoXoXoXoXoXoXoXoXoX~.oXoX.X@.Q ) / / -.%.b.oXoXoX",
"oXoXoXoXoXoXoXoXoXoXoXoXoXoXoXoXoXoXoX.X}.} [.[.[.[.[.[..X.X}..X.X% }.G K.oXoXoXoXoXoXoXoXoXoXoXoX~.oX.X%.Q x.N.N.I.o.%.;.oXoXoX",
"oXoXoXoXoXoXoXoXoXoXoXoXoXoXoXoXoXoXoX.X.Xw [.[.].).].1 .X.X.X  .XZ E u.E L oXoXoXoXoXoXoXoXoX.X.XoXoXl.] { E.N.S.C.I...=.oXoXoX",
"oXoXoXoXoXoXoXoXoXoXoXoXoXoXoXoXoXoXoX~.~.t [.[._.[.w 8.$ .X.X.X& i.E I Y b ~.oXoXoXoXoXoXoXoX~.oXoX.X-._ M.C.Y.v.I.V.l.$.oXoXoX",
"oXoXoXoXoXoXoXoXoXoXoXoXoXoXoXoXoXoXoX~.~..XT.'.[.].1 i.i.G.'.i.u.u.U I Y u.K.oXoXoXoXoXoXoXoX~.oX.X@./ c.I.v.c.U.c.I.:.! oXoXoX",
"oXoXoXoXoXoXoXoXoXoXoXoXoXoXoXoXoXoXoX~.~..Xw '.'.'.3 p.u.T T i.i.u.Y Y u.u.t.oXoXoXoXoXoXoXoX~.oX.X=./ M.v.U.m.M.E.o.+.; oXoXoX",
"oXoXoXoXoXoXoXoXoXoXoXoXoXoXoXoXoXoXoX.X.X~.w '.[.].- y.I I Y i.p.i.i.i.u.m  XoXoXoXoXoXoXoXoXoXoXv._ W.c.v.I.I.B.{ -.; oXoXoXoX",
"oXoXoXoXoXoXoXoXoXoXoXoXoXoX.X.XoXoXoXoX.X~.e [.[.[.q y.U U E s.p.s.s.i.j.b .XoX~.oXoXoXoXoXoXoX.X@.) Z.U.v.Y.V.A.:.+._ oXoXoXoX",
"oXoXoXoXoXoXoXoXoXoXoXoXoX~..X.X~.oXoXoX.XP.0 [.[.[.q p.p.d.X     j.i.p.X + .XoXoXoXoXoXoXoXoXoX.X:.D.Z.m.I.m.U.%.>.) oXoXoXoXoX",
"oXoXoXoXoXoXoXoXoXoXoXoXoX.XP Q..XoXoXoX~..Xw _.[.[.e p.h.                    .XoXoXoXoXoXoXoXoXz.' N.I.v.b.A.-.%.) oXoXoXoXoXoX",
"oXoXoXoXoXoXoXoXoXoXoXoXoX.XM v .X}.^.~.~..X1 ).[.).e i.h.        .           7.oXoXoXoXoXoXoXoX>.; U.B.U.C.%.%.) oXoXoXoXoXoXoX",
"oXoXoXoXoXoXoXoXoXoXoXoX.XV v i.v x ^.~.~..X .).[.].q a.          g.o           oXoXoXoXoXoXoX/.%.Y.x.U.o.%.O.^ oXoXoXoXoXoXoXoX",
"oXoXoXoXoXoXoXoXoXoXoXoX^.c s.i.p.J |.{.{.).[.[.'.].3 u.        . p.a.W O       oXoXoXoXoXoXoX{.=.n.A.-.-.Q ( oXoXoXoXoXoXoXoXoX",
"oXoXoXoXoXoXoXoXoXoXoXoX~.c E i.p.v XX.X.Xs [._.(.* u.a.      X W p.i.i.h oXX   oXoXoXoXoXoXoX.X%.X.%.@.! : oXoXoXoXoXoXoXoXoXoX",
"oXoXoXoXoXoXoXoXoXoXoXoX~.L.x i.i.l {..X.Xe '.'.w s.i.@   . . i.i.p.i.i.z oXoXu oXoXoXoXoXoXoX.X@.%.) ( oXoXoXoXoXoXoXoXoXoXoXoX",
"oXoXoXoXoXoXoXoXoXoXoXoXoXQ.K.c v 2.6 .XH.0 9.3 f.p.i.      p.i.i.i.i.v P.oXoXoXoXoXoXoXoXoXoX#.( ~ Y.oXoX~.~.oXoXoXoXoXoXoXoXoX",
"oXoXoXoXoXoXoXoXoXoXoXoXoXoXoXQ.A 2.1.7 1.1 3 i.i.i.s.X X s.p.d.b s.R 3..XoXoXoXoXoXoXoXoXoXoX@._ oXoXoX~.oXoXoXoXoXoXoXoXoXoXoX",
"oXoXoXoXoXoXoXoXoXoXoXoXoXoXoXoX.X5 2.2.1.1.2.v i.p.s.  . d.s.i.W i.x 3.6 ~.oXoX.X.XoXoX.X.X#.! oXoX.X~.oXoXoXoXoXoXoXoXoXoXoXoX",
"oXoXoXoXoXoXoXoXoXoXoXoXoXoXoXoX.X6 2.2.2.2.2.F h.i.p.@ u.i.u.E J T <.2.4.e.~.oXoXoXoXn v #..XE.oX.X.XoXoXoXoXoXoXoXoXoXoXoXoXoX",
"oXoXoXoXoXoXoXoXoXoXoXoXoXoXoXoX~.P.< p < 2.2.S 2.f.i.h.i.C x x x F 2.2.<.f ~.F.G.P.n j.N #.= oXoXoXoXoXoXoXoXoXoXoXoXoXoXoXoXoX",
"oXoXoXoXoXoXoXoXoXoXoXoXoXoXoXoXoX~.4.6 2.2.2.2.1.3.D  .<.5.2.2.1.2.1.2.2.1.1.1.,. .c a.E c e.oX.XoXoXoXoXoXoXoXoXoXoXoXoXoXoXoX",
"oXoXoXoXoXoXoXoXoXoXoXoXoXoXoXoXoXoX{.5 2.2.2.2.2.2.1.1.1.1.1.2.1.1.2.2.2.2.2.1.2.3.a.u.u.E r.oXoXoXoXoXoXoXoXoXoXoXoXoXoXoXoXoX",
"oXoXoXoXoXoXoXoXoXoXoXoXoXoXoXoXoXoXoX6 5 2.2.2.2.2.2.2.2.2.2.2.2.2.1.1.2.2.2.2.2.3.i.i.s.v oXoXoXoXoXoXoXoXoXoXoXoXoXoXoXoXoXoX",
"oXoXoXoXoXoXoXoXoXoXoXoXoXoXoXoXoXoXoX6 5 5 4.2.2.2.1.2.2.2.2.2.2.2.4.1.,.,.2.f 6 6 x H K x oX~.oXoXoXoXoXoXoXoXoXoXoXoXoXoXoXoX",
"oXoXoXoXoXoXoXoXoXoXoXoXoXoXoXoXoXoXoX6 < 7 6 < 1.2.2.2.2.2.2.2.2.2.2.7 < 5 5 P.oX}.:.k v oX~.~.oXoXoXoXoXoXoXoXoXoXoXoXoXoXoXoX",
"oXoXoXoXoXoXoXoXoXoXoXoXoXoXoXoXoXoXoX6 7 < 6 6 6 7 2.2.2.2.2.2.2.2.1.  J._., a oXoX! [ oXoXoXoXoXoXoXoXoXoXoXoXoXoXoXoXoXoXoXoX",
"oXoXoXoXoXoXoXoXoXoXoXoXoXoXoXoXoXoXoXf 5 5 6 5 5 5 5 < f 2.2.2.2.2.1.  (.$ [.6 oXoXoXoXoXoXoXoXoXoXoXoXoXoXoXoXoXoXoXoXoXoXoXoX",
"oXoXoXoXoXoXoXoXoXoXoXoXoXoXoXoXoXoXoX1.1.5 5 5 6 5 5 6 5 5 7 < 5 5   '.R._.[.2.6 oXoXoXoXoXoXoXoXoXoXoXoXoXoXoXoXoXoXoXoXoXoXoX",
"oXoXoXoXoXoXoXoXoXoXoXoXoXoXoXoXoXoXoX1.2.2.1.5 5 6 5 5 5 5 6 5 6 6   [.0.].'.2.2.oXoXoXoXoXoXoXoXoXoXoXoXoXoXoXoXoXoXoXoXoXoXoX",
"oXoXoXoXoXoXoXoXoXoXoXoXoXoXoXoXoXoXoX1.1.2.2.1.1.6 < 5 5 5 5 5 < 6 < 6.(.g '.1.d oXoXoXoXoXoXoXoXoXoXoXoXoXoXoXoXoXoXoXoXoXoXoX",
"oXoXoXoXoXoXoXoXoXoXoXoXoXoXoXoXoXoXoXoX5 1.1.1.2.2.2.2.1.2.u u 1.2.2.X  X'.# 2.7.oXoXoXoXoXoXoXoXoXoXoXoXoXoXoXoXoXoXoXoXoXoXoX",
"oXoXoXoXoXoXoXoXoXoXoXoXoXoXoXoXoXoX).oXP.5 2.4.2.2.2.2.1.2.2.2.2.2.2.2.1.2.1.8 .XoXoXoXoXoXoXoXoXoXoXoXoXoXoXoXoXoXoXoXoXoXoXoX",
"oXoXoXoXoXoXoXoXoXoXoXoXoXoXoXoXoXoX{.oXoX/.4.8 1.1.2.2.2.2.2.2.2.2.2.2.2.A i /.oXoXoXoXoXoXoXoXoXoXoXoXoXoXoXoXoXoXoXoXoXoXoXoX",
"oXoXoXoXoXoXoXoXoXoXoXoXoXoXoXoXoXoX{..XoX~.oX}.F.6 A 2.2.2.2.2.2.2.2.2.d < .XoXoX~.oXoXoXoXoXoXoXoXoXoXoXoXoXoXoXoXoXoXoXoXoXoX",
"oXoXoXoXoXoXoXoXoXoXoXoXoXoXoXoXoXoX{.oXoXoXoXoXoX/.2.7 5 5 i u i 5 5 F.6 1.g oX~.~.oXoXoXoXoXoXoXoXoXoXoXoXoXoXoXoXoXoXoXoXoXoX",
"oXoXoXoXoXoXoXoXoXoXoXoXoXoXoXoXoXoX{.oXoXoXoXoXoX1.1.5 .X.X~.~.oXoX.X~.w.1.< oXoXoXoXoX~.~.oXoXoXoXoXoXoXoXoXoXoXoXoXoXoXoXoXoX",
"oXoXoXoXoXoXoXoXoXoXoXoXoXoXoXoXoXoXoXoXoXoXoXoXoXf 2.6 oXoXoXoXoXoXoX.XL.3.# .XoXoXoXoXoXoXoXoXoXoXoXoXoXoXoXoXoXoXoXoXoXoXoXoX",
"oXoXoXoXoXoXoXoXoXoXoXoXoXoXoXoXoXoXoXoXoXoXoXoX~.      oXoXoXoXoXoXoX.Xw.5   oXoXoXoXoXoXoXoXoXoXoXoXoXoXoXoXoXoXoXoXoXoXoXoXoX",
"oXoXoXoXoXoXoXoXoXoXoXoXoXoXoXoXoXoXoXoXoXoXoXoX~.      oXoXoXoXoXoXoX.X6.      oXoXoXoXoXoXoXoXoXoXoXoXoXoXoXoXoXoXoXoXoXoXoXoX",
"oXoXoXoXoXoXoXoXoXoXoXoXoXoXoXoXoXoX{.oXoXoXoXoX.X        oXoXoXoXoXoX~.H.        oXoXoXoXoXoXoXoXoXoXoXoXoXoXoXoXoXoXoXoXoXoXoX",
"oXoXoXoXoXoXoXoXoXoXoXoXoXoXoXoXoXoX{.oXoXoXoXoXoXoX          oXoXoXoXoX~.          oXoXoXoXoXoXoXoXoXoXoXoXoXoXoXoXoXoXoXoXoXoX",
"oXoXoXoXoXoXoXoXoXoXoXoXoXoXoXoXoXoXoX.XoXoXoX.X.XoX            oXoXoXoX~.            oXoXoXoXoXoXoXoXoXoXoXoXoXoXoXoXoXoXoXoXoX",
"oXoXoXoXoXoXoXoXoXoXoXoXoXoXoXoXoXoXoXoXoXoXoXoXoXoXoXoXoXoXoXoXoXoXoXoXoXoXoXoXoX.XoXoXoXoXoXoXoXoXoXoXoXoXoXoXoXoXoXoXoXoXoXoX",
"oXoXoXoXoXoXoXoXoXoXoXoXoXoXoXoXoXoXoXoXoXoXoXoXoXoXoXoXoXoXoXoXoXoXoXoXoXoXoXoXoXoXoXoXoXoXoXoXoXoXoXoXoXoXoXoXoXoXoXoXoXoXoXoX",
"oXoXoXoXoXoXoXoXoXoXoXoXoXoXoXoXoXoXoXoXoXoXoXoXoXoXoXoXoXoXoXoXoXoXoXoXoXoXoXoXoXoXoXoXoXoXoXoXoXoXoXoXoXoXoXoXoXoXoXoXoXoXoXoX",
"oXoXoXoXoXoXoXoXoXoXoXoXoXoXoXoXoXoXoXoXoXoXoXoXoXoXoXoXoXoXoXoXoXoXoXoXoXoXoXoXoXoXoXoXoXoXoXoXoXoXoXoXoXoXoXoXoXoXoXoXoXoXoXoX",
"oXoXoXoXoXoXoXoXoXoXoXoXoXoXoXoXoXoXoXoXoXoXoXoXoXoXoXoXoXoXoXoXoXoXoXoXoXoXoXoXoXoXoXoXoXoXoXoXoXoXoXoXoXoXoXoXoXoXoXoXoXoXoXoX",
"oXoXoXoXoXoXoXoXoXoXoXoXoXoXoXoXoXoXoXoXoXoXoXoXoXoXoXoXoXoXoXoXoXoXoXoXoXoXoXoXoXoXoXoXoXoXoXoXoXoXoXoXoXoXoXoXoXoXoXoXoXoXoXoX",
"oXoXoXoXoXoXoXoXoXoXoXoXoXoXoXoXoXoXoXoXoXoXoXoXoXoXoXoXoXoXoXoXoXoXoXoXoXoXoXoXoXoXoXoXoXoXoXoXoXoXoXoXoXoXoXoXoXoXoXoXoXoXoXoX",
"oXoXoXoXoXoXoXoXoXoXoXoXoXoXoXoXoXoXoXoXoXoXoXoXoXoXoXoXoXoXoXoXoXoXoXoXoXoXoXoXoXoXoXoXoXoXoXoXoXoXoXoXoXoXoXoXoXoXoXoXoXoXoXoX"
};
