/* XPM */
static char *result[] = {
/* columns rows colors chars-per-pixel */
"64 64 155 2 ",
"   c #000000",
".  c #090201",
"X  c #000209",
"o  c #070908",
"O  c #09020B",
"+  c #170000",
"@  c #1C0C0A",
"#  c #1B140D",
"$  c #030013",
"%  c #292927",
"&  c #252722",
"*  c #3E3D46",
"=  c #3A525E",
"-  c #3E4E63",
";  c #3E4F68",
":  c #4D4F4A",
">  c #51534E",
",  c #484D50",
"<  c #434D5C",
"1  c #47515C",
"2  c #49525C",
"3  c #555752",
"4  c #555853",
"5  c #595B56",
"6  c #5D5E5A",
"7  c #61635F",
"8  c #444E63",
"9  c #4B4D62",
"0  c #445164",
"q  c #495264",
"w  c #445169",
"e  c #4E5A6B",
"r  c #545C6D",
"t  c #556170",
"y  c #596573",
"u  c #656663",
"i  c #6C6E6B",
"p  c #6F716C",
"a  c #70706E",
"s  c #666F77",
"d  c #636C7B",
"f  c #737570",
"g  c #767873",
"h  c #797B75",
"j  c #7B7C79",
"k  c #BC5E10",
"l  c #BC5C1C",
"z  c #BF600D",
"x  c #AB6127",
"c  c #B16A2F",
"v  c #B97738",
"b  c #C35E07",
"n  c #CB5D03",
"m  c #CC5B0B",
"M  c #C45E0B",
"N  c #D35B01",
"B  c #D15F09",
"V  c #CC6110",
"C  c #CD701C",
"Z  c #D07020",
"A  c #E81C45",
"S  c #FF1744",
"D  c #FF1947",
"F  c #FE1F4C",
"G  c #CC385C",
"H  c #FF204C",
"J  c #FD315B",
"K  c #B2704C",
"L  c #9F7F64",
"P  c #C17B42",
"I  c #D74262",
"U  c #D28335",
"Y  c yellow",
"T  c #BC8C5D",
"R  c #99866E",
"E  c #82837E",
"W  c #89897D",
"Q  c #90887D",
"!  c #E29F4B",
"~  c #F49D49",
"^  c #DBA05F",
"/  c #CC9462",
"(  c #D9A369",
")  c #F2AB73",
"_  c #F4B47A",
"`  c #F6BA7D",
"'  c #FABB7B",
"]  c #F9BC75",
"[  c #FDC47D",
"{  c #FECC7B",
"}  c #6C7382",
"|  c #757D8A",
" . c #FF6886",
".. c #F86485",
"X. c #788291",
"o. c #798D9D",
"O. c #848782",
"+. c #8B8784",
"@. c #878984",
"#. c #888A85",
"$. c #848B8A",
"%. c #8B8D89",
"&. c #818C92",
"*. c #9C9D9C",
"=. c #939393",
"-. c #AF9B86",
";. c #8F97A5",
":. c #A9AAA9",
">. c #B8B5B6",
",. c gray",
"<. c #B1B3B0",
"1. c #DCB187",
"2. c #ECB284",
"3. c #F9BD81",
"4. c #F7C684",
"5. c #FDC584",
"6. c #FEC986",
"7. c #FEC789",
"8. c #F5CB8C",
"9. c #FDCA8A",
"0. c #F5C58D",
"q. c #E7C590",
"w. c #EDC291",
"e. c #F3C790",
"r. c #FDCD91",
"t. c #FCCB98",
"y. c #F9C996",
"u. c #FFFF8D",
"i. c #F5D8BF",
"p. c #A8B9CC",
"a. c #C3C4C3",
"s. c #CCCECF",
"d. c #DCDCDB",
"f. c #F9DDC3",
"g. c #EADFDD",
"h. c #E5D9D0",
"j. c #FFF9C4",
"k. c #E2E2DF",
"l. c #C9DBEE",
"z. c #CBDFF6",
"x. c #DDE4E8",
"c. c #C5E0F7",
"v. c #E3E3E2",
"b. c #E8EAE7",
"n. c #ECECEC",
"m. c #E4E1E9",
"M. c #FFFDE7",
"N. c #F7F4ED",
"B. c #ECEEF1",
"V. c #EEF6F8",
"C. c #F4F4F4",
"Z. c #FFFBF4",
"A. c #F5FFFF",
"S. c #FDFEFD",
"D. c None",
/* pixels */
"D.D.D.D.D.D.D.D.D.D.D.D.D.D.D.D.D.D.D.D.D.D.D.D.D.D.D.D.D.D.D.D.D.D.D.D.D.D.D.D.D.D.D.D.D.D.D.D.D.D.D.D.D.D.D.D.D.D.D.D.D.D.D.D.",
"D.D.D.D.D.D.D.D.D.D.D.D.D.D.D.D.D.D.D.D.D.D.D.D.D.D.D.D.D.D.D.D.D.D.D.D.D.D.D.D.D.D.D.D.D.D.D.D.D.D.D.D.D.D.D.D.D.D.D.D.D.D.D.D.",
"D.D.D.D.D.D.D.D.D.D.D.D.D.D.D.D.D.D.D.D.D.D.D.D.D.D.D.D.D.D.D.D.D.D.D.D.D.D.D.D.D.D.D.D.D.D.D.D.D.D.D.D.D.D.D.D.D.D.D.D.D.D.D.D.",
"D.D.D.D.D.D.D.D.D.D.D.D.D.D.D.D.D.D.D.D.D.D.D.8 ; q D.D.D.D.D.D.D.D.D.D.D.D.D.D.D.D.D.D.D.D.D.D.D.D.D.D.D.D.D.D.D.D.D.D.D.D.D.D.",
"D.D.D.D.D.D.D.D.D.D.D.D.D.D.D.D.D.D.D.D.D.D.0 e J H 0 1 D.D.D.D.D.D.D.D.D.D.D.D.D.D.D.D.D.D.D.D.D.D.D.D.D.D.D.D.D.D.D.D.D.D.D.D.",
"D.D.D.D.D.D.D.D.D.D.D.D.D.D.v.D.D.D.D.D.D.8 y F H H S w D.D.D.D.D.D.D.D.D.D.D.D.D.D.D.D.D.D.D.D.D.D.D.D.D.D.D.D.D.D.D.D.D.D.D.D.",
"D.D.D.D.D.D.D.D.D.D.D.D.D.D.v.D.D.D.D.D.D.0 J F D S < D.D.D.D.D.D.D.D.D.D.D.D.D.D.D.D.D.D.D.D.D.D.D.D.D.D.D.D.D.D.D.D.D.D.D.D.D.",
"D.D.D.D.D.D.D.D.D.D.D.D.D.D.S.D.D.D.D.D.8 J D S S e D.D.D.D.D.D.D.D.D.D.D.D.D.D.D.D.D.D.D.D.D.D.D.D.D.D.D.D.D.D.D.D.D.D.D.D.D.D.",
"D.D.D.D.D.D.D.D.D.D.D.D.D.D.S.D.D.D.D.D.w D D S S q d q q | D.D.D.D.D.D.D.D.D.D.D.D.D.D.D.D.D.D.D.D.D.D.D.D.D.D.D.D.D.D.D.D.D.D.",
"D.D.D.D.D.D.D.D.D.D.D.D.D.D.S.D.D.D.D.D.w D S S S J J J J t 0 v.D.D.D.D.D.D.D.D.D.D.D.D.D.D.D.D.D.D.D.D.D.D.D.D.D.D.D.D.D.D.D.D.",
"D.D.D.D.D.D.D.D.D.D.D.D.D.D.v.D.D.D.D.D.0 D S S S S S J D D J 2 D.D.D.D.D.D.D.D.D.D.D.D.D.D.D.D.D.D.D.D.D.D.D.D.D.D.D.D.D.D.D.D.",
"D.D.D.D.D.D.D.D.D.D.D.D.D.D.v.D.D.D.D.D.8 D S S S S S S D S D G - w } D.D.D.D.D.D.D.D.D.D.D.D.D.D.D.D.D.D.D.D.D.D.D.D.D.D.v.D.D.",
"D.D.D.D.D.D.D.D.D.D.D.D.D.D.D.D.D.D.D.D.= D S S S S S D S S S S S S - D.D.D.D.D.D.D.D.D.D.D.D.D.D.D.D.D.D.D.l.Y Y Y Y S.D.D.D.D.",
"D.D.D.D.D.D.D.D.D.D.D.D.D.D.D.D.D.D.D.S.q D D D S S S S S S D  ., w < D.D.D.D.D.D.D.D.D.D.D.D.D.D.D.D.D.D.c.Y Y Y Y Y Y S.D.D.D.",
"D.D.D.D.D.D.D.D.D.D.D.D.D.D.D.D.D.D.D.S.S.J D S S S S S S S S S S S S g.D.D.D.D.D.D.D.D.D.D.D.D.D.v.D.D.S.Y Y Y Y Y Y Y p.D.D.D.",
"D.D.D.D.D.D.D.D.D.D.D.D.D.D.D.D.D.D.D.S.Z.} S S S S S S S S S D S         D.D.D.D.D.D.D.D.D.D.D.D.v.D.S.Y Y u.u.u.u.u.Y Y D.D.D.",
"D.D.D.D.D.D.D.D.D.D.D.D.D.D.D.D.D.D.D.S.S.0 S S S S S S S S S   S.T D D   / D.D.D.D.D.D.D.D.D.S.S.D.D.Y u.u.j.M.j.M.u.Y Y D.D.D.",
"D.D.D.D.D.D.D.D.D.D.D.D.D.D.D.D.D.D.D.v.v.r ..D S S 8 -.        = 9.  D ` m v.D.D.D.D.D.D.D.D.v.D.D.S.Y u.j.M.M.M.j.u.Y Y D.D.D.",
"D.D.D.D.D.D.D.D.D.D.D.D.D.D.D.D.D.D.D.v.v.S.S S S S < 7.  s.S D ' [ _ ) ` 6.f.D.D.D.D.D.D.D.D.v.D.S.Y Y u.M.j.M.M.M.u.Y Y D.D.D.",
"D.D.D.D.D.D.D.D.D.D.D.D.D.D.D.D.D.D.D.v.v.S.0 J S D , 7.5.' S   6.5.' ` 5.5.2.D.D.D.D.D.D.D.D.v.D.Y Y u.u.M.M.j.M.j.u.Y Y D.D.D.",
"D.D.D.D.D.D.D.D.D.D.D.D.D.D.D.D.D.D.D.S.S.v.0 D S D ; 3.) ) ' 6.6.6.7.7.6.C A.D.D.D.D.D.D.D.D.D.D.Y Y u.j.j.M.M.j.u.u.Y D.D.D.D.",
"D.D.D.D.D.D.D.D.D.D.D.D.D.D.S.S.D.D.D.D.S.k.8 D D D 9 3._ _ 5.9.6.6.6.6.r.m S.D.v.D.D.D.D.D.D.D.Y Y u.j.M.M.j.M.j.u.Y Y D.D.D.D.",
"D.D.D.D.D.D.D.D.D.D.D.D.D.v.S.S.v.D.D.D.S.k.w D D S 9 7.5.0.X   . e.6.7.O $ S.D.D.D.D.D.D.D.D.D.Y Y u.j.M.M.M.j.u.Y Y D.D.D.D.D.",
"D.D.D.D.D.D.D.D.D.D.D.D.D.S.( x.S.D.D.D.v.S.8 D S D w 6.t.                    S.D.D.D.D.D.D.D.D.Y u.M.M.j.M.u.u.Y Y D.D.D.D.D.D.",
"D.D.D.D.D.D.D.D.D.D.D.D.D.S.Z N S.Z.n.v.v.S.8 J S D 0 6.t.        .           *.D.D.D.D.D.D.D.D.Y u.M.M.M.u.u.Y Y D.D.D.D.D.D.D.",
"D.D.D.D.D.D.D.D.D.D.D.D.S.P N 6.N n B.v.v.S.X.J S D 9 8.          r.@           D.D.D.D.D.D.D.m.Y u.j.j.M.u.u.Y D.D.D.D.D.D.D.D.",
"D.D.D.D.D.D.D.D.D.D.D.D.n.m 9.9.7.~ V.C.C.n...D S J 9 5.      X . 9.8.6.+       D.D.D.D.D.D.D.C.Y u.j.u.u.u.Y D.D.D.D.D.D.D.D.D.",
"D.D.D.D.D.D.D.D.D.D.D.D.k.M [ 6.6.N N.S.S.s F D J = 6.8.      X { 6.6.6.k D.    D.D.D.D.D.D.D.S.Y Y Y Y Y Y D.D.D.D.D.D.D.D.D.D.",
"D.D.D.D.D.D.D.D.D.D.D.D.v.h.m 6.6.c C.S.S.w J J 8 6.6.#   . . 6.9.6.6.6.v D.D.i D.D.D.D.D.D.D.S.Y Y Y Y D.D.D.D.D.D.D.D.D.D.D.D.",
"D.D.D.D.D.D.D.D.D.D.D.D.D.v.f.b N #.4 S.d.8 ;.1 w.6.6.X     7.6.6.6.6.N v.D.D.D.D.D.D.D.D.D.D.Y Y Y l.D.D.v.v.D.D.D.D.D.D.D.D.D.",
"D.D.D.D.D.D.D.D.D.D.D.D.D.D.D.x.E #.@.5 O.< q 6.6.6.6.X X 9.6.4.B 9.] X.S.D.D.D.D.D.D.D.D.D.D.Y Y D.D.D.v.D.D.D.D.D.D.D.D.D.D.D.",
"D.D.D.D.D.D.D.D.D.D.D.D.D.D.D.D.S.3 #.#.#.O.#.N 6.6.9.  . 9.6.9.{ 6.n #.4 v.D.D.S.S.D.D.S.S.Y Y D.D.S.v.D.D.D.D.D.D.D.D.D.D.D.D.",
"D.D.D.D.D.D.D.D.D.D.D.D.D.D.D.D.S.3 #.#.#.#.#.R t.6.6.@ [ 6.6.[ ~ ' W #.%.<.v.D.D.D.D.V N Y Y z.D.S.S.D.D.D.D.D.D.D.D.D.D.D.D.D.",
"D.D.D.D.D.D.D.D.D.D.D.D.D.D.D.D.v.x.> p 3 #.#.W +.q.6.7.7.U n n n R +.#.#.j v.a.s.k.V r.K Y Y D.D.D.D.D.D.D.D.D.D.D.D.D.D.D.D.D.",
"D.D.D.D.D.D.D.D.D.D.D.D.D.D.D.D.D.v.%.3 @.#.#.#.#.#.Q o.+.o.#.#.#.#.#.#.#.O.O.#.O.X.z 8.[ b >.D.S.D.D.D.D.D.D.D.D.D.D.D.D.D.D.D.",
"D.D.D.D.D.D.D.D.D.D.D.D.D.D.D.D.D.D.C.3 @.#.#.#.#.#.#.#.#.#.#.#.#.#.#.#.#.#.#.#.#.#.8.6.7.[ 1.D.D.D.D.D.D.D.D.D.D.D.D.D.D.D.D.D.",
"D.D.D.D.D.D.D.D.D.D.D.D.D.D.D.D.D.D.D.3 3 #.#.#.#.#.#.#.#.#.O.#.#.#.#.#.#.#.#.O.@.#.6.6.9.N D.D.D.D.D.D.D.D.D.D.D.D.D.D.D.D.D.D.",
"D.D.D.D.D.D.D.D.D.D.D.D.D.D.D.D.D.D.D.3 3 3 %.#.#.#.#.#.#.#.%.#.#.#.#.#.#.@.#.g 3 3 n ! ( n D.v.D.D.D.D.D.D.D.D.D.D.D.D.D.D.D.D.",
"D.D.D.D.D.D.D.D.D.D.D.D.D.D.D.D.D.D.D.3 3 3 4 > @.#.#.#.#.#.#.#.#.#.#.4 > 4 3 v.D.Z.Y x N D.v.v.D.D.D.D.D.D.D.D.D.D.D.D.D.D.D.D.",
"D.D.D.D.D.D.D.D.D.D.D.D.D.D.D.D.D.D.D.4 4 3 3 3 4 5 #.#.#.#.#.#.#.#.#.  D J A a D.D.Y Y D.D.D.D.D.D.D.D.D.D.D.D.D.D.D.D.D.D.D.D.",
"D.D.D.D.D.D.D.D.D.D.D.D.D.D.D.D.D.D.D.h 3 3 3 3 3 3 3 3 h O.%.#.#.#.#.  S S S 4 D.D.D.D.D.D.D.D.D.D.D.D.D.D.D.D.D.D.D.D.D.D.D.D.",
"D.D.D.D.D.D.D.D.D.D.D.D.D.D.D.D.D.D.D.#.#.3 3 3 3 3 3 3 3 3 3 3 3 3   D Y Y D @.4 D.D.D.D.D.D.D.D.D.D.D.D.D.D.D.D.D.D.D.D.D.D.D.",
"D.D.D.D.D.D.D.D.D.D.D.D.D.D.D.D.D.D.D.O.#.#.%.3 3 3 3 3 3 3 3 3 3 3   D Y Y D #.#.D.D.D.D.D.D.D.D.D.D.D.D.D.D.D.D.D.D.D.D.D.D.D.",
"D.D.D.D.D.D.D.D.D.D.D.D.D.D.D.D.D.D.D.#.#.#.#.#.#.4 3 3 3 3 3 3 3 3 : I D S J #.f D.D.D.D.D.D.D.D.D.D.D.D.D.D.D.D.D.D.D.D.D.D.D.",
"D.D.D.D.D.D.D.D.D.D.D.D.D.D.D.D.D.D.D.D.> %.O.#.#.#.#.#.#.#.p i O.%.#.o J D & #.*.D.D.D.D.D.D.D.D.D.D.D.D.D.D.D.D.D.D.D.D.D.D.D.",
"D.D.D.D.D.D.D.D.D.D.D.D.D.D.D.D.D.D.n.D.k.3 %.#.#.#.#.#.#.#.@.@.#.#.#.#.#.#.O.6 S.D.D.D.D.D.D.D.D.D.D.D.D.D.D.D.D.D.D.D.D.D.D.D.",
"D.D.D.D.D.D.D.D.D.D.D.D.D.D.D.D.D.D.C.D.D.b.%.5 @.#.#.#.#.#.#.#.#.#.#.#.#.E u b.D.D.D.D.D.D.D.D.D.D.D.D.D.D.D.D.D.D.D.D.D.D.D.D.",
"D.D.D.D.D.D.D.D.D.D.D.D.D.D.D.D.D.D.C.S.D.v.D.S.,.3 E #.#.#.#.@.#.O.#.%.a > S.D.D.v.D.D.D.D.D.D.D.D.D.D.D.D.D.D.D.D.D.D.D.D.D.D.",
"D.D.D.D.D.D.D.D.D.D.D.D.D.D.D.D.D.D.}.D.D.        (.3.8 6 7 p i p 6 6 G.6 2.h D.^.^.D.D.D.D.D.D.D.D.D.D.D.D.D.D.D.D.D.D.D.D.D.D.",
"D.D.D.D.D.D.D.D.D.D.D.D.D.D.D.D.D.D.}.D.XX        2.2.6 XXXX^.^.D.D.XX^.e.3.6 D.D.D.D.D.^.^.D.D.D.D.D.D.D.D.D.D.D.D.D.D.D.D.D.D.",
"D.D.D.D.D.D.D.D.D.D.D.D.D.D.D.D.D.D.D.D.        @ g 3.6 D.D.D.D.D.D.D.XXJ.5.$ XXXXXX^.D.D.D.D.D.D.D.D.D.D.D.D.D.D.D.D.D.D.D.D.D.",
"D.D.D.D.D.D.D.D.D.D.D.D.D.D.D.D.D.D.D.^.    X   I.}.}.e.D.D.D.D.D.D.D.XXe.6   . XX      D.D.D.D.D.D.D.D.D.D.D.D.D.D.D.D.D.D.D.D.",
"D.D.D.D.D.D.D.D.D.D.D.D.D.D.D.D.D.D.D.^.    |.^.I.}.XXD.D.D.D.D.D.D.D.XX7.              D.D.D.D.D.D.D.D.D.D.D.D.D.D.D.D.D.D.D.D.",
"D.D.D.D.D.D.D.D.D.D.D.D.D.D.D.D.D.D.}.XX    ^.XXXXD.D.D.D.D.D.D.D.D.D.^.J.            XXD.D.D.D.D.D.D.D.D.D.D.D.D.D.D.D.D.D.D.D.",
"D.D.D.D.D.D.D.D.D.D.D.D.D.D.D.D.D.D.}.|.  G.D.D.D.D.D.D.D.D.D.D.D.D.D.D.^.        X |.D.D.D.D.D.D.D.D.D.D.D.D.D.D.D.D.D.D.D.D.D.",
"D.D.D.D.D.D.D.D.D.D.D.D.D.D.D.D.D.D.D.XX(.D.D.XXXXD.D.D.D.D.D.D.D.D.D.D.^.      J.D.D.D.D.D.D.D.D.D.D.D.D.D.D.D.D.D.D.D.D.D.D.D.",
"D.D.D.D.D.D.D.D.D.D.D.D.D.D.D.D.D.D.D.D.D.D.D.D.D.D.D.D.D.D.D.D.D.D.D.D.D.D.D.D.D.XXD.D.D.D.D.D.D.D.D.D.D.D.D.D.D.D.D.D.D.D.D.D.",
"D.D.D.D.D.D.D.D.D.D.D.D.D.D.D.D.D.D.D.D.D.D.D.D.D.D.D.D.D.D.D.D.D.D.D.D.D.D.D.D.D.D.D.D.D.D.D.D.D.D.D.D.D.D.D.D.D.D.D.D.D.D.D.D.",
"D.D.D.D.D.D.D.D.D.D.D.D.D.D.D.D.D.D.D.D.D.D.D.D.D.D.D.D.D.D.D.D.D.D.D.D.D.D.D.D.D.D.D.D.D.D.D.D.D.D.D.D.D.D.D.D.D.D.D.D.D.D.D.D.",
"D.D.D.D.D.D.D.D.D.D.D.D.D.D.D.D.D.D.D.D.D.D.D.D.D.D.D.D.D.D.D.D.D.D.D.D.D.D.D.D.D.D.D.D.D.D.D.D.D.D.D.D.D.D.D.D.D.D.D.D.D.D.D.D.",
"D.D.D.D.D.D.D.D.D.D.D.D.D.D.D.D.D.D.D.D.D.D.D.D.D.D.D.D.D.D.D.D.D.D.D.D.D.D.D.D.D.D.D.D.D.D.D.D.D.D.D.D.D.D.D.D.D.D.D.D.D.D.D.D.",
"D.D.D.D.D.D.D.D.D.D.D.D.D.D.D.D.D.D.D.D.D.D.D.D.D.D.D.D.D.D.D.D.D.D.D.D.D.D.D.D.D.D.D.D.D.D.D.D.D.D.D.D.D.D.D.D.D.D.D.D.D.D.D.D.",
"D.D.D.D.D.D.D.D.D.D.D.D.D.D.D.D.D.D.D.D.D.D.D.D.D.D.D.D.D.D.D.D.D.D.D.D.D.D.D.D.D.D.D.D.D.D.D.D.D.D.D.D.D.D.D.D.D.D.D.D.D.D.D.D.",
"D.D.D.D.D.D.D.D.D.D.D.D.D.D.D.D.D.D.D.D.D.D.D.D.D.D.D.D.D.D.D.D.D.D.D.D.D.D.D.D.D.D.D.D.D.D.D.D.D.D.D.D.D.D.D.D.D.D.D.D.D.D.D.D."
};
