/* XPM */
static char *result[] = {
/* columns rows colors chars-per-pixel */
"64 64 189 2 ",
"   c #010101",
".  c #090201",
"X  c #050409",
"o  c #1C0C0A",
"O  c #170000",
"+  c #030013",
"@  c #1D1D1D",
"#  c #1B140D",
"$  c #272825",
"%  c #323638",
"&  c #53473E",
"*  c #3E3D46",
"=  c #3A525E",
"-  c #1C4C7C",
";  c #3E4E64",
":  c #26497B",
">  c #344F7B",
",  c #36527F",
"<  c #4A4C48",
"1  c #51534E",
"2  c #434E5D",
"3  c #484D50",
"4  c #47515C",
"5  c #49525C",
"6  c #555752",
"7  c #555853",
"8  c #595B56",
"9  c #5D5E5A",
"0  c #61635F",
"q  c #444E63",
"w  c #4B4D62",
"e  c #445164",
"r  c #445169",
"t  c #4B5667",
"y  c #545C6D",
"u  c #576372",
"i  c #6C6E6B",
"p  c #656663",
"a  c #6F716C",
"s  c #70706E",
"d  c #656E79",
"f  c #737570",
"g  c #797B75",
"h  c #787B79",
"j  c #BC5D16",
"k  c #BF600D",
"l  c #AB6127",
"z  c #B16A2F",
"x  c #B97738",
"c  c #CB5D03",
"v  c #C75D09",
"b  c #D35B01",
"n  c #D15F09",
"m  c #CC6110",
"M  c #CD701C",
"N  c #D07020",
"B  c #B2704C",
"V  c #9F7F64",
"C  c #C17B42",
"Z  c #D28335",
"A  c #BC8C5D",
"S  c #82837E",
"D  c #89897D",
"F  c #90887D",
"G  c #99866E",
"H  c #D9854D",
"J  c #E29F4B",
"K  c #F49D49",
"L  c #DBA05F",
"P  c #CC9462",
"I  c #D9A369",
"U  c #F2AB73",
"Y  c #F4B47A",
"T  c #F6BA7D",
"R  c #FBBC7A",
"E  c #F8B875",
"W  c #FDC47C",
"Q  c #FECC7B",
"!  c #1F4886",
"~  c #1D4B8C",
"^  c #134887",
"/  c #1D5092",
"(  c #224784",
")  c #224B85",
"_  c #224B8A",
"`  c #294B88",
"'  c #214C90",
"]  c #26558A",
"[  c #3C69A0",
"{  c #475B86",
"}  c #4E6B95",
"|  c #6D7484",
" . c #757D8A",
".. c #798897",
"X. c #5C81AF",
"o. c #5785B9",
"O. c #7391BB",
"+. c #5B87C0",
"@. c #6B97C7",
"#. c #729ECD",
"$. c #7A9DCA",
"%. c #779EC5",
"&. c #729ED1",
"*. c #749DDB",
"=. c #638ACC",
"-. c #6CA1CA",
";. c #73A0CE",
":. c #6EA0D6",
">. c #74A1D1",
",. c #77A1D8",
"<. c #848782",
"1. c #8B8784",
"2. c #878984",
"3. c #888A85",
"4. c #848B8A",
"5. c #8B8D89",
"6. c #818C92",
"7. c #8F9398",
"8. c #999A99",
"9. c #AF9B86",
"0. c #8F97A5",
"q. c #969DA5",
"w. c #97A2AF",
"e. c #A7A7A6",
"r. c #B8B7B7",
"t. c #DCB187",
"y. c #ECB284",
"u. c #FABE81",
"i. c #FDC584",
"p. c #FEC986",
"a. c #FEC789",
"s. c #F5CB8C",
"d. c #FDCA8A",
"f. c #F6C689",
"g. c #EAC491",
"h. c #FDCD91",
"j. c #FCCB98",
"k. c #F7C894",
"l. c #F5D8BF",
"z. c #88A7C7",
"x. c #93B1C3",
"c. c #94B1D9",
"v. c #A5B6CC",
"b. c #A6B9CF",
"n. c #A9B9CD",
"m. c #ABB7C8",
"M. c #A6B8D0",
"N. c #AABBD3",
"B. c #A7B5D2",
"V. c #B3C4DA",
"C. c #B6CBDD",
"Z. c #B6CAE2",
"A. c #BDCDE8",
"S. c #BCD3ED",
"D. c #BFD1E6",
"F. c #BDD9F4",
"G. c #C3C4C3",
"H. c #CCCECF",
"J. c #DBDBDA",
"K. c #D6DADE",
"L. c #F8DEC6",
"P. c #E8DCD7",
"I. c #E2E2DF",
"U. c #C5D6EB",
"Y. c #C5DAEC",
"T. c #C9DAEE",
"R. c #CAD7E8",
"E. c #D5DDE8",
"W. c #CADDF3",
"Q. c #C5DAF3",
"!. c #DDE4E8",
"~. c #C5E0F7",
"^. c #E3E3E2",
"/. c #ECEBEB",
"(. c #E6E6E8",
"). c #E5EDF4",
"_. c #EBEEF5",
"`. c #EAEFF9",
"'. c #E2ECFB",
"]. c #EBF1F6",
"[. c #E7F1FA",
"{. c #EAF1F9",
"}. c #F4F4F4",
"|. c #FEFBF5",
" X c #F2F7FC",
".X c #F3FAFD",
"XX c #FDFEFE",
"oX c #F7F4ED",
"OX c None",
/* pixels */
"OXOXOXOXOXOXOXOXOXOXOXOXOXOXOXOXOXOXOXOXOXOXOXOXOXOXOXOXOXOXOXOXOXOXOXOXOXOXOXOXOXOXOXOXOXOXOXOXOXOXOXOXOXOXOXOXOXOXOXOXOXOXOXOX",
"OXOXOXOXOXOXOXOXOXOXOXOXOXOXOXOXOXOXOXOXOXOXOXOXOXOXOXOXOXOXOXOXOXOXOXOXOXOXOXOXOXOXOXOXOXOXOXOXOXOXOXOXOXOXOXOXOXOXOXOXOXOXOXOX",
"OXOXOXOXOXOXOXOXOXOXOXOXOXOXOXOXOXOXOXOXOXOXOXOXOXOXOXOXOXOXOXOXOXOXOXOXOXOXOXOXOXOXOXOXOXOXOXOXOXOXOXOXOXOXOXOXOXOXOXOXOXOXOXOX",
"OXOXOXOXOXOXOXOXOXOXOXOXOXOXOXOXOXOXOXOXOXOXOXq r e OXOXOXOXOXOXOXOXOXOXOXOXOXOXOXOXOXOXOXOXOXOXOXOXOXOXOXOXOXOXOXOXOXOXOXOXOXOX",
"OXOXOXOXOXOXOXOXOXOXOXOXOXOXOXOXOXOXOXOXOXOXr y XX.Xe 4 OXOXOXOXOXOXOXOXOXOXOXOXOXOXOXOXOXOXOXOXOXOXOXOXOXOXOXOXOXOXOXOXOXOXOXOX",
"OXOXOXOXOXOXOXOXOXOXOXOXOXOX^.OXOXOXOXOXOXq u {.XXXXXXr OXOXOXOXOXOXOXOXOXOXOXOXOXOXOXOXOXOXOXOXOXOXOXOXOXOXOXOXOXOXOXOXOXOXOXOX",
"OXOXOXOXOXOXOXOXOXOXOXOXOXOX^.OXOXOXOXOXOXe {.{.{.!.; OXOXOXOXOXOXOXOXOXOXOXOXOXOXOXOXOXOXOXOXOXOXOXOXOXOXOXOXOXOXOXOXOXOXOXOXOX",
"OXOXOXOXOXOXOXOXOXOXOXOXOXOXXXOXOXOXOXOXq ].{.{.{.t OXOXOXOXOXOXOXOXOXOXOXOXOXOXOXOXOXOXOXOXOXOXOXOXOXOXOXOXOXOXOXOXOXOXOXOXOXOX",
"OXOXOXOXOXOXOXOXOXOXOXOXOXOXXXOXOXOXOXOXr {.[.]..Xw d e e  .OXOXOXOXOXOXOXOXOXOXOXOXOXOXOXOXOXOXOXOXOXOXOXOXOXOXOXOXOXOXOXOXOXOX",
"OXOXOXOXOXOXOXOXOXOXOXOXOXOXXXOXOXOXOXOXr ].{.w.`.`..XXX].u e !.OXOXOXOXOXOXOXOXOXOXOXOXOXOXOXOXOXOXOXOXOXOXOXOXOXOXOXOXOXOXOXOX",
"OXOXOXOXOXOXOXOXOXOXOXOXOXOX^.OXOXOXOXOXe {.{.`.[.[.`.{.}.XX'.4 OXOXOXOXOXOXOXOXOXOXOXOXOXOXOXOXOXOXOXOXOXOXOXOXOXOXOXOXOXOXOXOX",
"OXOXOXOXOXOXOXOXOXOXOXOXOXOX^.OXOXOXOXOXq {.`.`.{.{.{.{.{._.XX .; r | OXOXOXOXOXOXOXOXOXOXOXOXOXOXOXOXOXOXOXOXOXOXOXOXOXOX^.OXOX",
"OXOXOXOXOXOXOXOXOXOXOXOXOXOXOXOXOXOXOXOX; {.[._.{._.[.`.].{.XX{.].`.; OXOXOXOXOXOXOXOXOXOXOXOXOXOXOXOXOXOXOXY.#.;.;.;.XXOXOXOXOX",
"OXOXOXOXOXOXOXOXOXOXOXOXOXOXOXOXOXOXOXXXe {.{.{.{.{.].[.XX].XXXX3 r q OXOXOXOXOXOXOXOXOXOXOXOXOXOXOXOXOXOX~.>.#.&.,.#.;.XXOXOXOX",
"OXOXOXOXOXOXOXOXOXOXOXOXOXOXOXOXOXOXOXXXXX].].[.{.{.{.{.XXXX.XXXXX|.XXP.OXOXOXOXOXOXOXOXOXOXOXOXOX^.OXOX.X#.! _ ( ( #.>.n.OXOXOX",
"OXOXOXOXOXOXOXOXOXOXOXOXOXOXOXOXOXOXOX.X|.| {.{.{.{.{.{.XXXX|.XXXX& |.H L.OXOXOXOXOXOXOXOXOXOXOXOX^.OXXX&.! c.B.B.U.O.>.:.OXOXOX",
"OXOXOXOXOXOXOXOXOXOXOXOXOXOXOXOXOXOXOXXXXXe {.{.].`.[.2 XXXXXX  XXA W i.W P OXOXOXOXOXOXOXOXOXXXXXOXOXz.[ } Q.b.U.V.U.X.-.OXOXOX",
"OXOXOXOXOXOXOXOXOXOXOXOXOXOXOXOXOXOXOX^.^.y {.{.`.{.e 9.% XXXXXX* p.W U T n ^.OXOXOXOXOXOXOXOX^.OXOXXX>.( V.Z.T.b.Y.C.z.%.OXOXOX",
"OXOXOXOXOXOXOXOXOXOXOXOXOXOXOXOXOXOXOX^.^.XXR.].{.[.4 p.p.H.].p.i.i.Y U T i.L.OXOXOXOXOXOXOXOX^.OXXX#.( v.U.n.b.U.n.U.&.~ OXOXOX",
"OXOXOXOXOXOXOXOXOXOXOXOXOXOXOXOXOXOXOX^.^.XXe ].].{.4 a.i.R R p.p.i.T T i.i.y.OXOXOXOXOXOXOXOX^.OXXX-.( N.M.U.n.N.W.O.@.: OXOXOX",
"OXOXOXOXOXOXOXOXOXOXOXOXOXOXOXOXOXOXOXXXXX^.e ].{.[.; u.U U T p.a.p.p.p.i.M .XOXOXOXOXOXOXOXOXOXOXb.` Q.b.b.S.Y.C.} ;.: OXOXOXOX",
"OXOXOXOXOXOXOXOXOXOXOXOXOXOXXXXXOXOXOXOXXX^.r {.{.{.w T Y Y i.p.a.d.d.p.k.n XXOX^.OXOXOXOXOXOXOXXX#.) A.U.M.T.C.U.;.=.` OXOXOXOX",
"OXOXOXOXOXOXOXOXOXOXOXOXOX^.XXXX^.OXOXOXXX^.q {.{.{.w a.i.f.X     k.p.a.X + XXOXOXOXOXOXOXOXOXOXXX>.F.A.N.U.M.Y.#.,._ OXOXOXOXOX",
"OXOXOXOXOXOXOXOXOXOXOXOXOXXXI !.XXOXOXOX^.XXq {.{.{.r a.j.                    XXOXOXOXOXOXOXOXOXx.] B.U.b.n.S.#.&._ OXOXOXOXOXOX",
"OXOXOXOXOXOXOXOXOXOXOXOXOXXXN b XX|./.^.^.XX2 `.{.[.e p.j.        .           8.OXOXOXOXOXOXOXOX*.! Y.V.Q.Z.&.&.! OXOXOXOXOXOXOX",
"OXOXOXOXOXOXOXOXOXOXOXOXXXC b p.b c /.^.^.XX.._.].`.w s.          h.o           OXOXOXOXOXOXOX(.#.Q.v.Y.O.;.+./ OXOXOXOXOXOXOXOX",
"OXOXOXOXOXOXOXOXOXOXOXOX/.c d.p.a.K  X}.}._.{.].].[.4 i.        . p.s.p.O       OXOXOXOXOXOXOX}.#.m.S.&.-.) _ OXOXOXOXOXOXOXOXOX",
"OXOXOXOXOXOXOXOXOXOXOXOX!.v W p.a.b oXXXXXd {.`.).= i.s.      X Q a.p.p.j OX    OXOXOXOXOXOXOXXX;.o.&.#.~ > OXOXOXOXOXOXOXOXOXOX",
"OXOXOXOXOXOXOXOXOXOXOXOX^.P.c p.p.z }.XXXXr ].].e d.p.#   . . p.p.p.p.p.x OXOXi OXOXOXOXOXOXOXXX#.-._ ) OXOXOXOXOXOXOXOXOXOXOXOX",
"OXOXOXOXOXOXOXOXOXOXOXOXOX^.L.v b 3.7 XXJ.e 0.2 g.a.p.      a.p.p.p.p.b I.OXOXOXOXOXOXOXOXOXOX#.! ^ T.OXOX^.^.OXOXOXOXOXOXOXOXOX",
"OXOXOXOXOXOXOXOXOXOXOXOXOXOXOX!.S 3.2.8 2.2 4 p.p.p.p.X   d.a.f.n d.E ..XXOXOXOXOXOXOXOXOXOXOX#.` OXOXOX^.OXOXOXOXOXOXOXOXOXOXOX",
"OXOXOXOXOXOXOXOXOXOXOXOXOXOXOXOXXX6 3.3.2.2.3.b a.d.d.  . h.a.p.Q p.c 5.7 ^.OXOXXXXXOXOXXXXX$._ OXOXXX^.OXOXOXOXOXOXOXOXOXOXOXOX",
"OXOXOXOXOXOXOXOXOXOXOXOXOXOXOXOXXX7 3.3.3.3.3.G j.p.p.o i.p.p.W K R D 1.5.r.J.OXOXOXOXm b $.XXW.OXXXXXOXOXOXOXOXOXOXOXOXOXOXOXOX",
"OXOXOXOXOXOXOXOXOXOXOXOXOXOXOXOX^.I.1 a 6 3.3.D 3.g.a.j.p.Z c c c G 3.3.5.g ^.G.H.I.m k.B $.- OXOXOXOXOXOXOXOXOXOXOXOXOXOXOXOXOX",
"OXOXOXOXOXOXOXOXOXOXOXOXOXOXOXOXOX^.5.6 3.3.3.3.3.3.F ..1.6.3.3.3.3.3.3.5.<.<.2.<...v s.W v r.OXXXOXOXOXOXOXOXOXOXOXOXOXOXOXOXOX",
"OXOXOXOXOXOXOXOXOXOXOXOXOXOXOXOXOXOX}.6 2.3.3.3.3.3.3.3.3.3.3.3.3.3.3.3.3.3.2.5.3.4.s.p.i.W t.OXOXOXOXOXOXOXOXOXOXOXOXOXOXOXOXOX",
"OXOXOXOXOXOXOXOXOXOXOXOXOXOXOXOXOXOXOX7 6 3.3.3.3.3.3.3.3.3.3.3.3.2.2.3.3.5.3.3.3.4.p.p.d.b OXOXOXOXOXOXOXOXOXOXOXOXOXOXOXOXOXOX",
"OXOXOXOXOXOXOXOXOXOXOXOXOXOXOXOXOXOXOX6 6 6 5.3.3.3.3.3.3.3.3.3.3.2.5.2.<.S 3.f 7 6 c J L c OX^.OXOXOXOXOXOXOXOXOXOXOXOXOXOXOXOX",
"OXOXOXOXOXOXOXOXOXOXOXOXOXOXOXOXOXOXOX6 6 6 6 6 3.3.3.3.3.3.3.3.3.3.5.6 1 7 7 I.OX|.>.l b OX^.^.OXOXOXOXOXOXOXOXOXOXOXOXOXOXOXOX",
"OXOXOXOXOXOXOXOXOXOXOXOXOXOXOXOXOXOXOX6 6 6 6 6 6 7 3.3.3.3.3.3.3.3.5.  J.`.< s OXOX~ { OXOXOXOXOXOXOXOXOXOXOXOXOXOXOXOXOXOXOXOX",
"OXOXOXOXOXOXOXOXOXOXOXOXOXOXOXOXOXOXOXg 6 6 6 6 6 6 6 6 g 2.3.3.3.3.5.  ).% {.6 OXOXOXOXOXOXOXOXOXOXOXOXOXOXOXOXOXOXOXOXOXOXOXOX",
"OXOXOXOXOXOXOXOXOXOXOXOXOXOXOXOXOXOXOX3.2.6 6 6 6 6 6 6 6 1 6 6 6 6   _.E.{.{.5.7 OXOXOXOXOXOXOXOXOXOXOXOXOXOXOXOXOXOXOXOXOXOXOX",
"OXOXOXOXOXOXOXOXOXOXOXOXOXOXOXOXOXOXOX2.3.3.3.6 6 6 6 6 6 6 6 7 6 6   {.q.[.{.2.3.OXOXOXOXOXOXOXOXOXOXOXOXOXOXOXOXOXOXOXOXOXOXOX",
"OXOXOXOXOXOXOXOXOXOXOXOXOXOXOXOXOXOXOX3.3.3.3.3.3.8 6 7 6 6 7 6 6 6 1 7.).h ].2.f OXOXOXOXOXOXOXOXOXOXOXOXOXOXOXOXOXOXOXOXOXOXOX",
"OXOXOXOXOXOXOXOXOXOXOXOXOXOXOXOXOXOXOXOX6 3.3.3.3.3.3.3.3.3.i i <.3.3.X  X].$ 2.8.OXOXOXOXOXOXOXOXOXOXOXOXOXOXOXOXOXOXOXOXOXOXOX",
"OXOXOXOXOXOXOXOXOXOXOXOXOXOXOXOXOXOX/.OXI.6 3.3.3.3.3.3.5.3.2.3.3.3.3.3.2.3.<.0 XXOXOXOXOXOXOXOXOXOXOXOXOXOXOXOXOXOXOXOXOXOXOXOX",
"OXOXOXOXOXOXOXOXOXOXOXOXOXOXOXOXOXOX}.OXOX(.5.9 3.3.3.3.2.2.2.3.3.3.3.3.3.S p (.OXOXOXOXOXOXOXOXOXOXOXOXOXOXOXOXOXOXOXOXOXOXOXOX",
"OXOXOXOXOXOXOXOXOXOXOXOXOXOXOXOXOXOX}.XXOX^.  XXr.6 S 3.3.3.3.5.3.2.3.3.f 1 XXOXOX^.OXOXOXOXOXOXOXOXOXOXOXOXOXOXOXOXOXOXOXOXOXOX",
"OXOXOXOXOXOXOXOXOXOXOXOXOXOXOXOXOXOX}.OXOX        (.3.8 6 7 p i p 6 6 G.6 2.h OX^.^.OXOXOXOXOXOXOXOXOXOXOXOXOXOXOXOXOXOXOXOXOXOX",
"OXOXOXOXOXOXOXOXOXOXOXOXOXOXOXOXOXOX}.OXXX        2.2.6 XXXX^.^.OXOXXX^.e.3.6 OXOXOXOXOX^.^.OXOXOXOXOXOXOXOXOXOXOXOXOXOXOXOXOXOX",
"OXOXOXOXOXOXOXOXOXOXOXOXOXOXOXOXOXOXOXOX        @ g 3.6 OXOXOXOXOXOXOXXXJ.5.$ XXXXXX^.OXOXOXOXOXOXOXOXOXOXOXOXOXOXOXOXOXOXOXOXOX",
"OXOXOXOXOXOXOXOXOXOXOXOXOXOXOXOXOXOXOX^.    X   I.}.}.e.OXOXOXOXOXOXOXXXe.6   . XX      OXOXOXOXOXOXOXOXOXOXOXOXOXOXOXOXOXOXOXOX",
"OXOXOXOXOXOXOXOXOXOXOXOXOXOXOXOXOXOXOX^.    |.^.I.}.XXOXOXOXOXOXOXOXOXXX7.              OXOXOXOXOXOXOXOXOXOXOXOXOXOXOXOXOXOXOXOX",
"OXOXOXOXOXOXOXOXOXOXOXOXOXOXOXOXOXOX}.XX    ^.XXXXOXOXOXOXOXOXOXOXOXOX^.J.            XXOXOXOXOXOXOXOXOXOXOXOXOXOXOXOXOXOXOXOXOX",
"OXOXOXOXOXOXOXOXOXOXOXOXOXOXOXOXOXOX}.|.  G.OXOXOXOXOXOXOXOXOXOXOXOXOXOX^.        X |.OXOXOXOXOXOXOXOXOXOXOXOXOXOXOXOXOXOXOXOXOX",
"OXOXOXOXOXOXOXOXOXOXOXOXOXOXOXOXOXOXOXXX(.OXOXXXXXOXOXOXOXOXOXOXOXOXOXOX^.      J.OXOXOXOXOXOXOXOXOXOXOXOXOXOXOXOXOXOXOXOXOXOXOX",
"OXOXOXOXOXOXOXOXOXOXOXOXOXOXOXOXOXOXOXOXOXOXOXOXOXOXOXOXOXOXOXOXOXOXOXOXOXOXOXOXOXXXOXOXOXOXOXOXOXOXOXOXOXOXOXOXOXOXOXOXOXOXOXOX",
"OXOXOXOXOXOXOXOXOXOXOXOXOXOXOXOXOXOXOXOXOXOXOXOXOXOXOXOXOXOXOXOXOXOXOXOXOXOXOXOXOXOXOXOXOXOXOXOXOXOXOXOXOXOXOXOXOXOXOXOXOXOXOXOX",
"OXOXOXOXOXOXOXOXOXOXOXOXOXOXOXOXOXOXOXOXOXOXOXOXOXOXOXOXOXOXOXOXOXOXOXOXOXOXOXOXOXOXOXOXOXOXOXOXOXOXOXOXOXOXOXOXOXOXOXOXOXOXOXOX",
"OXOXOXOXOXOXOXOXOXOXOXOXOXOXOXOXOXOXOXOXOXOXOXOXOXOXOXOXOXOXOXOXOXOXOXOXOXOXOXOXOXOXOXOXOXOXOXOXOXOXOXOXOXOXOXOXOXOXOXOXOXOXOXOX",
"OXOXOXOXOXOXOXOXOXOXOXOXOXOXOXOXOXOXOXOXOXOXOXOXOXOXOXOXOXOXOXOXOXOXOXOXOXOXOXOXOXOXOXOXOXOXOXOXOXOXOXOXOXOXOXOXOXOXOXOXOXOXOXOX",
"OXOXOXOXOXOXOXOXOXOXOXOXOXOXOXOXOXOXOXOXOXOXOXOXOXOXOXOXOXOXOXOXOXOXOXOXOXOXOXOXOXOXOXOXOXOXOXOXOXOXOXOXOXOXOXOXOXOXOXOXOXOXOXOX",
"OXOXOXOXOXOXOXOXOXOXOXOXOXOXOXOXOXOXOXOXOXOXOXOXOXOXOXOXOXOXOXOXOXOXOXOXOXOXOXOXOXOXOXOXOXOXOXOXOXOXOXOXOXOXOXOXOXOXOXOXOXOXOXOX",
"OXOXOXOXOXOXOXOXOXOXOXOXOXOXOXOXOXOXOXOXOXOXOXOXOXOXOXOXOXOXOXOXOXOXOXOXOXOXOXOXOXOXOXOXOXOXOXOXOXOXOXOXOXOXOXOXOXOXOXOXOXOXOXOX"
};
