/* XPM */
static char *result[] = {
/* columns rows colors chars-per-pixel */
"64 64 3 1 ",
"  c #F2F000",
". c white",
"X c None",
/* pixels */
"XXXXXXXXXXXXXXXXXXXXXXXXXXXXXXXXXXXXXXXXXXXXXXXXXXXXXXXXXXXXXXXX",
"XXXXXXXXXXXXXXXXXXXXXXXXXXXXXXXXXXXXXXXXXXXXXXXXXXXXXXXXXXXXXXXX",
"XXXXXXXXXXXXXXXXXXXXXXXXXXXXXXXXXXXXXXXXXXXXXXXXXXXXXXXXXXXXXXXX",
"XXXXXXXXXXXXXXXXXXXXXXXXXXXXXXXXXXXXXXXXXXXXXXXXXXXXXXXXXXXXXXXX",
"XXXXXXXXXXXXXXXXXXXXXXXXXXXXXXXXXXXXXXXXXXXXXXXXXXXXXXXXXXXXXXXX",
"XXXXXXXXXXXXXXXXXXXXXXXXXXXXXXXXXXXXXXXXXXXXXXXXXXXXXXXXXXXXXXXX",
"XXXXXXXXXXXXXXXXXXXXXXXXXXXXXXXXXXXXXXXXXXXXXXXXXXXXXXXXXXXXXXXX",
"XXXXXXXXXXXXXXXXXXXXXXXXXXXXXXXXXXXXXXXXXXXXXXXXXXXXXXXXXXXXXXXX",
"XXXXXXXX................XXXX........XXXX................XXXXXXXX",
"XXXXXXXX................XXXX........XXXX................XXXXXXXX",
"XXXXXXXX................XXXX........XXXX................XXXXXXXX",
"XXXXXXXX................XXXX........XXXX................XXXXXXXX",
"XXXXXXXXXXXXXXXXXXXXXXXXXXXXXXXXXXXXXXXXXXXXXXXXXXXXXXXXXXXXXXXX",
"XXXXXXXXXXXXXXXXXXXXXXXXXXXXXXXXXXXXXXXXXXXXXXXXXXXXXXXXXXXXXXXX",
"XXXXXXXXXXXXXXXXXXXXXXXXXXXXXXXXXXXXXXXXXXXXXXXXXXXXXXXXXXXXXXXX",
"XXXXXXXXXXXXXXXXXXXXXXXXXXXXXXXXXXXXXXXXXXXXXXXXXXXXXXXXXXXXXXXX",
"XXXXXXXXXXXXXXXXXXXXXXXX                XXXXXXXXXXXXXXXXXXXXXXXX",
"XXXXXXX   XXXXXXXXXXXXXX                XXXXXXXXXXXXXX   XXXXXXX",
"XXXXXXXXXX XXXXXXXXXXXXX                XXXXXXXXXXXXX XXXXXXXXXX",
"XXXXXXXXXXX XXXXXXXXXXXX                XXXXXXXXXXXX XXXXXXXXXXX",
"XXXXXXXXXXXX XXXXXXXXXXX                XXXXXXXXXXX XXXXXXXXXXXX",
"XXXXXXXXXXXXX XXXXXXXXXX                XXXXXXXXXX XXXXXXXXXXXXX",
"XXXXXXXXXXXXXX XXXXXXXXX                XXXXXXXXX XXXXXXXXXXXXXX",
"XXXXXXXXXXXXXXX                                  XXXXXXXXXXXXXXX",
"XXXXXXXXXXXXXXXX                                XXXXXXXXXXXXXXXX",
"XXXXXXXXXXXXXXXX                                XXXXXXXXXXXXXXXX",
"XXXXXXXXXXXX                                        XXXXXXXXXXXX",
"XXXXXXXXXXXX                                        XXXXXXXXXXXX",
"XXXXXXXXXXXX                                        XXXXXXXXXXXX",
"XXXXXXXXXXXX                                        XXXXXXXXXXXX",
"XXXXXXXXXXXX         XX                  XX         XXXXXXXXXXXX",
"XXXXXXXXXXXX           X                X           XXXXXXXXXXXX",
"XXXXXXXXXXXX            X              X            XXXXXXXXXXXX",
"XXXXXXXXXXXX             X            X             XXXXXXXXXXXX",
"XXXXXXXXXXXX              X          X              XXXXXXXXXXXX",
"XXXXXXXXXXXX               X        X               XXXXXXXXXXXX",
"XXXXXXXXXXXX                                        XXXXXXXXXXXX",
"XXXXXXXXXXXX                                        XXXXXXXXXXXX",
"XXXXXXXXXXXX    XXXXXXXX                XXXXXXXX    XXXXXXXXXXXX",
"XXXXXXXXXXXX    XXXXXXXX                XXXXXXXX    XXXXXXXXXXXX",
"XXXXXXXXXXXX    XXXXXXXX                XXXXXXXX    XXXXXXXXXXXX",
"XXXXXXXXXXXX                                        XXXXXXXXXXXX",
"XXXXXXXXXXXXXXXX                                XXXXXXXXXXXXXXXX",
"XXXXXXXXXXXXXXXX                                XXXXXXXXXXXXXXXX",
"XXXXXXXXXXXXXXXX                                XXXXXXXXXXXXXXXX",
"XXXXXXXXXXXXXXXX                                XXXXXXXXXXXXXXXX",
"XXXXXXXXXXXX    XXXXXXXX    XXXXXXXX    XXXXXXXX    XXXXXXXXXXXX",
"XXXXXXXXXXXX    XXXXXXXX    XXXXXXXX    XXXXXXXX    XXXXXXXXXXXX",
"XXXXXXXXXXXX    XXXXXXXX    XXXXXXXX    XXXXXXXX    XXXXXXXXXXXX",
"XXXXXXXXXXXX    XXXXXXXX    XXXXXXXX    XXXXXXXX    XXXXXXXXXXXX",
"XXXXXXXXXXXX        XXXXXXXXXXXXXXXXXXXXXXXX        XXXXXXXXXXXX",
"XXXXXXXXXXXX        XXXXXXXXXXXXXXXXXXXXXXXX        XXXXXXXXXXXX",
"XXXXXXXXXXXX        XXXXXXXXXXXXXXXXXXXXXXXX        XXXXXXXXXXXX",
"XXXXXXXXXXXX        XXXXXXXXXXXXXXXXXXXXXXXX        XXXXXXXXXXXX",
"XXXXXXXXXXXXXXXX    XXXXXXXXXXXXXXXXXXXXXXXX    XXXXXXXXXXXXXXXX",
"XXXXXXXXXXXXXXXX            XXXXXXXXXX          XXXXXXXXXXXXXXXX",
"XXXXXXXXXXXXXXXX            XXXXXXXXXX          XXXXXXXXXXXXXXXX",
"XXXXXXXXXXXXXXXXXXXXXXXXXXXXXXXXXXXXXXXXXXXXXXXXXXXXXXXXXXXXXXXX",
"XXXXXXXXXXXXXXXXXXXXXXXXXXXXXXXXXXXXXXXXXXXXXXXXXXXXXXXXXXXXXXXX",
"XXXXXXXXXXXXXXXXXXXXXXXXXXXXXXXXXXXXXXXXXXXXXXXXXXXXXXXXXXXXXXXX",
"XXXXXXXXXXXXXXXXXXXXXXXXXXXXXXXXXXXXXXXXXXXXXXXXXXXXXXXXXXXXXXXX",
"XXXXXXXXXXXXXXXXXXXXXXXXXXXXXXXXXXXXXXXXXXXXXXXXXXXXXXXXXXXXXXXX",
"XXXXXXXXXXXXXXXXXXXXXXXXXXXXXXXXXXXXXXXXXXXXXXXXXXXXXXXXXXXXXXXX",
"XXXXXXXXXXXXXXXXXXXXXXXXXXXXXXXXXXXXXXXXXXXXXXXXXXXXXXXXXXXXXXXX",
"XXXXXXXXXXXXXXXXXXXXXXXXXXXXXXXXXXXXXXXXXXXXXXXXXXXXXXXXXXXXXXXX",
"XXXXXXXXXXXXXXXXXXXXXXXXXXXXXXXXXXXXXXXXXXXXXXXXXXXXXXXXXXXXXXXX"
};
