/* XPM */
static char *result[] = {
/* columns rows colors chars-per-pixel */
"64 64 194 2 ",
"   c #010101",
".  c #070807",
"X  c #0C0B0B",
"o  c #150B03",
"O  c #120E0B",
"+  c #1D140D",
"@  c #151414",
"#  c #1C1C1C",
"$  c #25190E",
"%  c #371B07",
"&  c #2D1E13",
"*  c #221E1C",
"=  c #251B13",
"-  c #331D11",
";  c #3F220E",
":  c #2D241F",
">  c #302013",
",  c #3B2A1C",
"<  c #34271D",
"1  c #222222",
"2  c #272828",
"3  c #2D2D2D",
"4  c #2D2827",
"5  c #3B2F27",
"6  c #3C3026",
"7  c #303131",
"8  c #3B3A3B",
"9  c #4A1F01",
"0  c #4E2503",
"q  c #42240D",
"w  c #4D2A0D",
"e  c #502702",
"r  c #532A03",
"t  c #5A2D03",
"y  c #532D0C",
"u  c #5D3204",
"i  c #5E340A",
"p  c #422712",
"a  c #4C2C12",
"s  c #442C18",
"d  c #47321E",
"f  c #5A3515",
"g  c #5E3B1C",
"h  c #633402",
"j  c #6A3601",
"k  c #6C3901",
"l  c #62370C",
"z  c #6A3B0B",
"x  c #66380D",
"c  c #723D01",
"v  c #703E0F",
"b  c #653A14",
"n  c #6B3E14",
"m  c #633D1B",
"M  c #6A3E18",
"N  c #433124",
"B  c #6F400B",
"V  c #754103",
"C  c #7A4301",
"Z  c #74420C",
"A  c #7A460B",
"S  c #7E480A",
"D  c #6D4014",
"F  c #6E431B",
"G  c #66411B",
"H  c #754314",
"J  c #7A4613",
"K  c #7B4916",
"L  c #75451C",
"P  c #77481D",
"I  c #7B4A1B",
"U  c #78471B",
"Y  c #6D4622",
"T  c #6E4D2F",
"R  c #744A25",
"E  c #7B4D23",
"W  c #724A28",
"Q  c #7D5126",
"!  c #7C512A",
"~  c #77512B",
"^  c #6B4F36",
"/  c #624634",
"(  c #6D5038",
")  c #7B5431",
"_  c #74563D",
"`  c #765032",
"'  c #5E5D5C",
"]  c #6D5441",
"[  c #6F5A49",
"{  c #785547",
"}  c #755B48",
"|  c #6C625A",
" . c #74665B",
".. c #626262",
"X. c #766A63",
"o. c #796E66",
"O. c #767777",
"+. c #804909",
"@. c #814907",
"#. c #814E1B",
"$. c #824E16",
"%. c #81501E",
"&. c #824F22",
"*. c #835224",
"=. c #8A5625",
"-. c #8E5824",
";. c #82552A",
":. c #8A5728",
">. c #85592F",
",. c #8B5A2B",
"<. c #935A24",
"1. c #985F26",
"2. c #935E2B",
"3. c #985E28",
"4. c #835731",
"5. c #845A34",
"6. c #8B5D34",
"7. c #875E3A",
"8. c #95612D",
"9. c #9A622C",
"0. c #8F6135",
"q. c #8E633B",
"w. c #946335",
"e. c #9B6532",
"r. c #94653B",
"t. c #96683F",
"y. c #9C693B",
"u. c #9D6936",
"i. c #A1682E",
"p. c #A16934",
"a. c #A36E3B",
"s. c #A7713C",
"d. c #AA733B",
"f. c #89664A",
"g. c #956740",
"h. c #966942",
"j. c #9B6D43",
"k. c #97704E",
"l. c #9D714B",
"z. c #9F7044",
"x. c #806652",
"c. c #987356",
"v. c #A47345",
"b. c #A3744B",
"n. c #A97749",
"m. c #AC7B4D",
"M. c #A97C52",
"N. c #86796F",
"B. c #927760",
"V. c #9D7C62",
"C. c #837D78",
"Z. c #AF8055",
"A. c #B58355",
"S. c #B48459",
"D. c #9E836F",
"F. c #91867E",
"G. c #AF947F",
"H. c #B2947A",
"J. c #8B8A8A",
"K. c #878585",
"L. c #9F9B98",
"P. c #A49E9C",
"I. c #A59B93",
"U. c #AFA49D",
"Y. c #BBAFA6",
"T. c #B7B1AC",
"R. c #B5B4B3",
"E. c #B9B7B5",
"W. c #BCBBBB",
"Q. c #C2A891",
"!. c #CFBBA7",
"~. c #C5C0BD",
"^. c #C5C4C4",
"/. c #C8C8C7",
"(. c #CCCCCB",
"). c #D1D0CF",
"_. c #DED2CC",
"`. c #D5D4D3",
"'. c #DDDDDC",
"]. c #D9D7D5",
"[. c #E0DFDF",
"{. c #E1E0DF",
"}. c #EAE4DE",
"|. c #E4E4E3",
" X c #E8E7E7",
".X c #EDECEB",
"XX c #F1EEEC",
"oX c #F1F0EF",
"OX c #F0EFF0",
"+X c #F3F2F2",
"@X c #F9F8F7",
"#X c #FDFCFC",
"$X c #F8F6F6",
"%X c None",
/* pixels */
"%X%X%X%X%X%X%X%X%X%X%X%X%X%X%X%X%X%X%X%X%X%X%X%X%X%X%X%X%X%X%X%X%X%X%X%X%X%X%X%X%X%X%X%X%X%X%X%X%X%X%X%X%X%X%X%X%X%X%X%X%X%X%X%X",
"%X%X%X%X%X%X%X%X%X%X%X%X%X%X%X%X%X%X%X%X%X{ { %X%X%X%X%X%X%X%X%X%X%X%X%X%X%X%X%X%X%X%X%X%X%X%X%X%X%X%X%X%X%X%X%X%X%X%X%X%X%X%X%X",
"%X%X%X%X%X%X%X%X%X%X%X%X%X%X%X%X%X%X%X%X%X{ { %X%X%X%X%X%X%X%X%X%X%X%X%X%X%X%X%X%X%X%X%X%X%X%X%X%X%X%X%X%X%X%X%X%X%X%X%X%X%X%X%X",
"%X%X%X%X%X%X%X%X%X%X%X%X%X%X%X%X%X%X%X%X{ { { %X%X%X%X%X%X%X%X%X%X%X%X%X{ %X%X%X%X%X%X%X%X%X%X%X%X%X%X%X%X%X%X%X%X%X%X%X%X%X%X%X",
"%X%X%X%X%X%X%X%X%X%X%X%X%X%X%X%X%X%X%X{ { { { %X%X%X%X%X%X%X%X%X%X%X%X%X{ %X%X%X%X%X%X%X%X%X%X%X%X%X%X%X%X%X%X%X%X%X%X%X%X%X%X%X",
"%X%X%X%X%X%X%X%X%X%X%X%X%X%X%X%X%X%X%X{ { %X%X%X%X%X%X%X%X%X%X%X%X%X%X{ { %X%X%X%X%X%X%X%X%X%X%X%X%X%X%X%X%X%X%X%X%X%X%X%X%X%X%X",
"%X%X%X%X%X%X%X%X%X%X%X%X%X%X%X%X%X%X%X{ { { { %X%X%X%X%X%X%X%X%X%X%X{ { { %X%X%X%X%X%X%X%X%X%X%X%X%X%X%X%X%X%X%X%X%X%X%X%X%X%X%X",
"%X%X%X%X%X%X%X%X%X%X%X%X%X%X%X%X%X%X%X{ { { { { %X%X%X%X%X%X%X%X%X%X{ { %X%X%X%X%X%X%X%X%X%X%X%X%X%X%X%X%X%X%X%X%X%X%X%X%X%X%X%X",
"%X%X%X%X%X%X%X%X%X%X%X%X%X%X%X%X%X%X%X%X%X%X{ { %X%X%X%X%X%X%X%X%X{ { %X%X%X%X%X%X%X%X%X%X%X%X%X%X%X%X%X%X%X%X%X%X%X%X%X%X%X%X%X",
"%X%X%X%X%X%X%X%X%X%X%X%X%X%X%X%X%X%X%X%X%X%X%X%X%X%X%X%X%X%X%X%X%X{ { %X%X%X%X%X%X%X%X%X%X%X%X%X%X%X%X%X%X%X%X%X%X%X%X%X%X%X%X%X",
"%X%X%X%X%X%X%X%X%X%X%X%X%X%X%X%X%X%X%X%X%X%X%X%X%X%X%X%X%X%X%X%X%X{ %X%X%X%X%X%X%X%X%X%X%X%X%X%X%X%X%X%X%X%X%X%X%X%X%X%X%X%X%X%X",
"%X%X%X%X%X%X%X%X%X%X%X%X%X%X%X%X%X%X%X%X%X%X%X%X%X%X* %X%X%X%X%X%X%X%X%X%X%X%X%X%X%X%X%X%X%X{ %X%X%X%X%X%X%X%X%X%X%X%X%X%X%X%X%X",
"%X%X%X%X%X%X%X%X%X%X%X%X%X%X%X%X%X%X%X%X%X%X%X%X%X%Xm u.Q %X%X%X%X%X%X%X%X%X%X%X%X%X%X%X%X%X{ %X%X%X%X%X%X%X%X%X%X%X%X%X%X%X%X%X",
"%X%X%X%X%X%X%X%X%X%X%X%X%X%X%X%X%X%X%X%X%X%X%X%X%X%XO y.v.p.Y %X%X%X%X%X%X%X%X%X%X%X%X%X%X%X{ %X%X%X%X%X%X%X%X%X%X%X%X%X%X%X%X%X",
"%X%X%X%X%X%X%X%X%X%X%X%X%X%X%X%X%X%X%X%X%X%X%X%X%X%X+ a.a.9.9.8.%X%X%X%X%X%X%X%X%X%X%X%X%X%X{ %X%X%X%X%X%X%X%X%X%X%X%X%X%X%X%X%X",
"%X%X%X%X%X%X%X%X%X%X%X%X%X%X{ %X%X%X%X%X%X%X%X%X%X%X;.d.p.9.9.8.w., %X%X%X%X%X%X%X%X%X%X%X{ { %X%X%X%X%X%X%X%X%X%X%X%X%X%X%X%X%X",
"%X%X%X%X%X%X%X%X%X%X%X%X%X%X{ %X%X%X%X%X%X%X%X%X%X%Xp.i.9.9.3.3.9.w.s %X%X%X%X%X%X%X%X%X{ { { %X%X%X%X%X%X%X%X%X%X%X%X%X%X%X%X%X",
"%X%X%X%X%X%X%X%X%X%X%X%X%X{ { %X%X%X%X%X%X%X%X%X%XY e.9.9.9.3.3.8.w.0.%X%X%X%X%X%X%X%X{ { { %X%X%X%X%X%X%X%X%X%X%X%X%X%X%X%X%X%X",
"%X%X%X%X%X%X%X%X%X%X%X%X{ { { %X%X%X%X%X%X%X%X%X%X&.2.2.w.e.y.e.9.e.w.U   %X%X%X%X%X%X{ %X%X%X%X%X%X%X%X%X%X%X%X%X%X%X%X%X%X%X%X",
"%X%X%X%X%X%X%X%X%X%X%X%X{ { %X%X%X%X%X%X%X%X%X%X%XE >.w.t.v.p.e.e.8.w.E = %X%X%X%X%X%X{ %X%X%X%X%X%X%X%X%X%X%X%X%X%X%X%X%X%X%X%X",
"%X%X%X%X%X%X%X%X%X%X%X%X{ { %X%X%X%X%X%X%X%X%X%X%XW r.v.m.a.p.i.e.8.,.E w %X%X%X%X%X%X{ %X%X%X%X%X%X%X%X%X%X%X%X%X%X%X%X%X%X%X%X",
"%X%X%X%X%X%X%X%X%X%X%X%X%X{ { %X%X%X%X%X%X%X%X~ s.S.A.m.s.i.i.9.9.<.%.L y %X%X%X%X%X%X%X%X%X%X%X%X%X%X%X%X%X%X%X%X%X%X%X%X%X%X%X",
"%X%X%X%X%X%X%X%X%X%X%X%X%X{ { %X%X%X%X%X%X%Xa.S.S.A.d.p.i.9.3.9.1.=.#.M y %X%X%X%X%X%X%X%X%X%X%X%X%X%X%X%X%X%X%X%X%X%X%X%X%X%X%X",
"%X%X%X%X%X%X%X%X%X%X%X%X%X%X%X%X%X%X%X%X%Xw.b.M.n.a.9.3.3.1.1.<.-.=.U M y g %X%X%X%X%X%X%X%X%X%X%X%X%X%X%X%X%X%X%X%X%X%X%X%X%X%X",
"%X%X%X%X%X%X%X%X%X%X%X%X%X%X%X%X%X%X%X%Xd t.v.a.9.8.<.<.<.1.<.<.=.#.I -.h.g.r.E %X%X%X%X%X%X%X%X%X%X%X%X%X%X%X%X%X%X%X%X%X%X%X%X",
"%X%X%X%X%X%X%X%X%X%X%X%X%X%X%X%X%X%X%X%XU w.w.w.2.-.<.<.<.<.<.=.&.*.y.z.j.h.7.4.U   %X%X%X%X%X%X%X%X%X%X%X%X%X%X%X%X%X%X%X%X%X%X",
"%X%X%X%X%X%X%X%X%X%X%X%X%X%X%X%X%X%X%X%XK ,.,.8.2.<.%.<.-.-.:.=.e.v.l.l.h.r.5.;.W & %X%X%X%X%X%X%X%X%X{ { %X%X%X%X%X%X%X%X%X%X%X",
"%X%X%X%X%X%X%X%X%X%X%X%X%X%X%X%X%X%X%X%XU :.6.4._ ) =.<.:.,.e.n.m.b.b.c.f.} ` R Y ; %X%X%X%X%X%X%X%X%X{ { %X%X%X%X%X%X%X%X%X%X%X",
"%X%X%X%X%X%X%X%X%X%X%X%X%X%X%X%X%X%X%X%XH ,.| R.^.E.C.>.a.v.M.M.b.k.h.J.^.(.R.| f & %X%X%X%X%X%X%X{ { { { %X%X%X%X%X%X%X%X%X%X%X",
"%X%X%X%X%X%X%X%X%X%X%X%X%X%X%X%X%X%X%X%XF X.). XXX.X|.K.b.M.b.j.g.j.L.|. X X'.R.X.o %X%X%X%X%X%X%X{ { { %X%X%X%X%X%X%X%X%X%X%X%X",
"%X%X%X%X%X%X{ %X%X%X%X%X%X%X%X%X%X%X, y.j.^..X7     +X'.x.j.h.r.w.x.'..X    ' `.P.y E %X%X%X%X%X%X{ %X%X%X%X%X%X%X%X%X%X%X%X%X%X",
"%X%X%X%X%X%X{ { %X%X%X%X%X%X%X%X%XT M.M.B.|.+X      J..XF.y.w.,.*.L..XO.      .XW./ 7.4.6 %X%X%X%X{ %X%X%X%X%X%X%X%X%X%X%X%X%X%X",
"%X%X%X%X%X%X{ { %X%X%X%X%X%X%X%X5 l.b.b.I..XW.      3 OXR.,.=.#.#.E.XX2 .   . /.(. .) ) G   %X%X%X{ %X%X%X%X%X%X%X%X%X%X%X%X%X%X",
"%X%X%X%X%X%X%X{ %X%X%X%X%X%X%X%XE h.h.h.U.OXE..   . 3 OX~.#.#.I H ~.OX1 X X @ /.`.o.) W g = %X%X%X%X%X%X%X%X%X%X%X%X%X%X%X%X%X%X",
"%X%X%X%X%X%X%X} { %X%X%X%X%X%X%XL 6.6.2.D.OX+X# @ # K.OXT.J K J v !.OXO.# @ # OX`.] W G f % %X%X%X%X%X%X%X%X%X%X%X%X%X%X%X%X%X%X",
"%X%X%X%X%X%X%X{ { { %X%X%X%X%X%XH ;.;.>.E +X#XN 1 1 OX.Xk.J v F ;.I.$X+X1 # ...X/.m F b a % %X%X%X%X%X%X%X%X%X%X%X%X%X%X%X%X%X%X",
"%X%X%X%X%X%X%X%X{ { %X%X%X%X%X%Xn E *.*.E _.#X@X[.#X+X[.b M w.a.v.t.#X#X#X'.OX|.P.D b l y - %X%X%X%X%X%X%X%X%X%X%X%X%X%X%X%X%X%X",
"%X%X%X%X%X%X%X%X%X%X%X%X%X%X%X%Xh L E I K J |.@X@XOX].F y.v.n.v.z.h.q.#X$XOX|.Y.F z x i y @ %X%X%X%X%X%X%X%X%X%X%X%X%X%X%X%X%X%X",
"%X%X%X%X%X%X%X%X%X%X%X%X%X%X%X%XL ,.:.,.,.,.,.! V.) 6.v.b.v.j.h.q.0.>.E 7.c.L x Z z l u 0 $ X %X%X%X%X%X%X%X%X%X%X%X%X%X%X%X%X%X",
"%X%X%X%X%X%X%X%X%X%X%X%X%X%XR y.v.v.v.v.b.b.v.v.v.v.j.j.h.r.q.6.>.;.*.I H v Z v z j h y m ! Q b   %X%X%X%X%X%X%X%X%X%X%X%X%X%X%X",
"%X%X%X%X%X%X%X%X%X%X%X%X%X,.z.b.b.b.n.b.b.j.j.f.N. .[ [ ] ( ^ ^ ^ ( ] [  .N.A V c j l M 4.7.>.~ b   %X%X%X%X%X%X%X%X%X%X%X%X%X%X",
"%X%X%X%X%X%X%X%X%X%X%X%Xm q.h.h.j.z.t.t.t.t.r.k. X`.^.W.W.W.E.E.W.^.^.).[. Xc c k x F 4.0.4.~ R Y 4 %X%X%X%X%X%X%X%X%X%X%X%X%X%X",
"%X%X%X%X%X%X%X%X%X%X%X%XL >.6.0.q.w.0.6.0.,.>.:.k.$X$X+X.XXX.X.XoX+X#X#XXXK c j z L ;.4.>.~ P F M y %X%X%X%X%X%X%X%X%X%X%X%X%X%X",
"%X%X%X%X%X%X%X%X%X%X%X%Xn I Q ;.;.;.;.*.Q %.#.$.$.S !.@X@X#X#X#X#X#X@XI.k c c v L Q ;.;.P L D b i e %X%X%X%X%X%X%X%X%X%X%X%X%X%X",
"%X%X%X%X%X%X%X%X%X%X%X%Xl z H V A V S A S S S S @.@.C j Q.@X#X#XXXH.j j j c H H U I I U H B z l i 0 %X%X%X%X%X%X%X%X%X%X%X%X%X%X",
"%X%X%X%X%X%X%X%X%X%X%X%Xt k k c c V C C C C C C C C C C c k j h j c c c v H J J U K H H B z h h u 0 %X%X%X%X%X%X%X%X%X%X%X%X%X%X",
"%X%X%X%X%X%X%X%X%X%X%X%Xe j k k c c V V V V C C C V c V V c c k c V Z Z J A Z J A V Z V z k h u u * %X%X%X%X%X%X%X%X%X%X%X%X%X%X",
"%X%X%X%X%X%X%X%X%X%X%X%X4 h j k j k c c c c V V c c c k j c c c c V A V V A A V V V c z k h u u & %X%X%X%X%X%X%X%X%X%X%X%X%X%X%X",
"%X%X%X%X%X%X%X%X%X%X%X%X%X< h j k k k j k j k u r r t h k c c c c c k c V k k k k k k h h t ; %X%X%X%X%X%X%X%X%X%X%X%X%X%X%X%X%X",
"%X%X%X%X%X%X%X%X%X%X%X%X%X%X%X, q q % o                 . + N p p p q q d a a a a w p 5 %X%X%X%X%X%X%X%X%X%X%X%X%X%X%X%X%X%X%X%X",
"%X%X%X%X%X%X%X%X%X%X%X%X%X%X%X%X%X%X%X%X%X%X%X%X%X%X%X%X%X%X%X%X%X%X%X%X%X%X%X%X%X%X%X%X%X%X%X%X%X%X%X%X%X%X%X%X%X%X%X%X%X%X%X%X",
"%X%X%X%X%X%X%X%X%X%X%X%X%X%X%X%X%X%X%X%X%X%X%X%X%X%X%X%X%X%X%X%X%X%X%X%X%X%X%X%X%X%X%X%X%X%X%X%X%X%X%X%X%X%X%X%X%X%X%X%X%X%X%X%X",
"%X%X%X%X%X%X%X%X%X%X%X%X%X%X%X%X%X%X%X%X%X%X%X%X%X%X%X%X%X%X%X%X%X%X%X%X%X%X%X%X%X%X%X%X%X%X%X%X%X%X%X%X%X%X%X%X%X%X%X%X%X%X%X%X",
"%X%X%X%X%X%X%X%X%X%X%X%X%X%X%X%X%X%X%X%X%X%X%X%X%X%X%X%X%X%X%X%X%X%X%X%X%X%X%X%X%X%X%X%X%X%X%X%X%X%X%X%X%X%X%X%X%X%X%X%X%X%X%X%X",
"%X%X%X%X%X%X%X%X%X%X%X%X%X%X%X%X%X%X%X%X%X%X%X%X%X%X%X%X%X%X%X%X%X%X%X%X%X%X%X%X%X%X%X%X%X%X%X%X%X%X%X%X%X%X%X%X%X%X%X%X%X%X%X%X",
"%X%X%X%X%X%X%X%X%X%X%X%X%X%X%X%X%X%X%X%X%X%X%X%X%X%X%X%X%X%X%X%X%X%X%X%X%X%X%X%X%X%X%X%X%X%X%X%X%X%X%X%X%X%X%X%X%X%X%X%X%X%X%X%X",
"%X%X%X%X%X%X%X%X%X%X%X%X%X%X%X%X%X%X%X%X%X%X%X%X%X%X%X%X%X%X%X%X%X%X%X%X%X%X%X%X%X%X%X%X%X%X%X%X%X%X%X%X%X%X%X%X%X%X%X%X%X%X%X%X",
"%X%X%X%X%X%X%X%X%X%X%X%X%X%X%X%X%X%X%X%X%X%X%X%X%X%X%X%X%X%X%X%X%X%X%X%X%X%X%X%X%X%X%X%X%X%X%X%X%X%X%X%X%X%X%X%X%X%X%X%X%X%X%X%X",
"%X%X%X%X%X%X%X%X%X%X%X%X%X%X%X%X%X%X%X%X%X%X%X%X%X%X%X%X%X%X%X%X%X%X%X%X%X%X%X%X%X%X%X%X%X%X%X%X%X%X%X%X%X%X%X%X%X%X%X%X%X%X%X%X",
"%X%X%X%X%X%X%X%X%X%X%X%X%X%X%X%X%X%X%X%X%X%X%X%X%X%X%X%X%X%X%X%X%X%X%X%X%X%X%X%X%X%X%X%X%X%X%X%X%X%X%X%X%X%X%X%X%X%X%X%X%X%X%X%X",
"%X%X%X%X%X%X%X%X%X%X%X%X%X%X%X%X%X%X%X%X%X%X%X%X%X%X%X%X%X%X%X%X%X%X%X%X%X%X%X%X%X%X%X%X%X%X%X%X%X%X%X%X%X%X%X%X%X%X%X%X%X%X%X%X",
"%X%X%X%X%X%X%X%X%X%X%X%X%X%X%X%X%X%X%X%X%X%X%X%X%X%X%X%X%X%X%X%X%X%X%X%X%X%X%X%X%X%X%X%X%X%X%X%X%X%X%X%X%X%X%X%X%X%X%X%X%X%X%X%X",
"%X%X%X%X%X%X%X%X%X%X%X%X%X%X%X%X%X%X%X%X%X%X%X%X%X%X%X%X%X%X%X%X%X%X%X%X%X%X%X%X%X%X%X%X%X%X%X%X%X%X%X%X%X%X%X%X%X%X%X%X%X%X%X%X",
"%X%X%X%X%X%X%X%X%X%X%X%X%X%X%X%X%X%X%X%X%X%X%X%X%X%X%X%X%X%X%X%X%X%X%X%X%X%X%X%X%X%X%X%X%X%X%X%X%X%X%X%X%X%X%X%X%X%X%X%X%X%X%X%X"
};
