/* XPM */
static char *result[] = {
/* columns rows colors chars-per-pixel */
"64 64 193 2 ",
"   c #010101",
".  c #070807",
"X  c #0C0B0B",
"o  c #150B03",
"O  c #120E0B",
"+  c #1D140D",
"@  c #151414",
"#  c #1C1C1C",
"$  c #25190E",
"%  c #371B07",
"&  c #2D1E13",
"*  c #221E1C",
"=  c #251B13",
"-  c #331D11",
";  c #3F220E",
":  c #2D241F",
">  c #302013",
",  c #3B2A1C",
"<  c #34271D",
"1  c #222222",
"2  c #272828",
"3  c #2D2D2D",
"4  c #2D2827",
"5  c #3B2F27",
"6  c #3C3026",
"7  c #303131",
"8  c #3B3A3B",
"9  c #4A1F01",
"0  c #4E2503",
"q  c #42240D",
"w  c #4D2A0D",
"e  c #502702",
"r  c #532A03",
"t  c #5A2D03",
"y  c #532D0C",
"u  c #5D3204",
"i  c #5E340A",
"p  c #422712",
"a  c #4C2C12",
"s  c #442C18",
"d  c #47321E",
"f  c #5A3515",
"g  c #5E3B1C",
"h  c #633402",
"j  c #6A3601",
"k  c #6C3901",
"l  c #62370C",
"z  c #6A3B0B",
"x  c #66380D",
"c  c #723D01",
"v  c #703E0F",
"b  c #653A14",
"n  c #6B3E14",
"m  c #633D1B",
"M  c #6A3E18",
"N  c #433124",
"B  c #6F400B",
"V  c #754103",
"C  c #7A4301",
"Z  c #74420C",
"A  c #7A460B",
"S  c #7E480A",
"D  c #6D4014",
"F  c #6E431B",
"G  c #66411B",
"H  c #754314",
"J  c #7A4613",
"K  c #7B4916",
"L  c #75451C",
"P  c #77481D",
"I  c #7B4A1B",
"U  c #78471B",
"Y  c #6D4622",
"T  c #6E4D2F",
"R  c #744A25",
"E  c #7B4D23",
"W  c #724A28",
"Q  c #7D5126",
"!  c #7C512A",
"~  c #77512B",
"^  c #6B4F36",
"/  c #624634",
"(  c #6D5038",
")  c #7B5431",
"_  c #74563D",
"`  c #765032",
"'  c #5E5D5C",
"]  c #6D5441",
"[  c #6F5A49",
"{  c #755B48",
"}  c #6C625A",
"|  c #74665B",
" . c #626262",
".. c #766A63",
"X. c #796E66",
"o. c #767777",
"O. c #804909",
"+. c #814907",
"@. c #814E1B",
"#. c #824E16",
"$. c #81501E",
"%. c #824F22",
"&. c #835224",
"*. c #8A5625",
"=. c #8E5824",
"-. c #82552A",
";. c #8A5728",
":. c #85592F",
">. c #8B5A2B",
",. c #935A24",
"<. c #985F26",
"1. c #935E2B",
"2. c #985E28",
"3. c #835731",
"4. c #845A34",
"5. c #8B5D34",
"6. c #875E3A",
"7. c #95612D",
"8. c #9A622C",
"9. c #8F6135",
"0. c #8E633B",
"q. c #946335",
"w. c #9B6532",
"e. c #94653B",
"r. c #96683F",
"t. c #9C693B",
"y. c #9D6936",
"u. c #A1682E",
"i. c #A16934",
"p. c #A36E3B",
"a. c #A7713C",
"s. c #AA733B",
"d. c #89664A",
"f. c #956740",
"g. c #966942",
"h. c #9B6D43",
"j. c #97704E",
"k. c #9D714B",
"l. c #9F7044",
"z. c #806652",
"x. c #987356",
"c. c #A47345",
"v. c #A3744B",
"b. c #A97749",
"n. c #AC7B4D",
"m. c #A97C52",
"M. c #86796F",
"N. c #927760",
"B. c #9D7C62",
"V. c #837D78",
"C. c #AF8055",
"Z. c #B58355",
"A. c #B48459",
"S. c #9E836F",
"D. c #91867E",
"F. c #AF947F",
"G. c #B2947A",
"H. c #8B8A8A",
"J. c #878585",
"K. c #9F9B98",
"L. c #A49E9C",
"P. c #A59B93",
"I. c #AFA49D",
"U. c #BBAFA6",
"Y. c #B7B1AC",
"T. c #B5B4B3",
"R. c #B9B7B5",
"E. c #BCBBBB",
"W. c #C2A891",
"Q. c #CFBBA7",
"!. c #C5C0BD",
"~. c #C5C4C4",
"^. c #C8C8C7",
"/. c #CCCCCB",
"(. c #D1D0CF",
"). c #DED2CC",
"_. c #D5D4D3",
"`. c #DDDDDC",
"'. c #D9D7D5",
"]. c #E0DFDF",
"[. c #E1E0DF",
"{. c #EAE4DE",
"}. c #E4E4E3",
"|. c #E8E7E7",
" X c #EDECEB",
".X c #F1EEEC",
"XX c #F1F0EF",
"oX c #F0EFF0",
"OX c #F3F2F2",
"+X c #F9F8F7",
"@X c #FDFCFC",
"#X c #F8F6F6",
"$X c None",
/* pixels */
"$X$X$X$X$X$X$X$X$X$X$X$X$X$X$X$X$X$X$X$X$X$X$X$X$X$X$X$X$X$X$X$X$X$X$X$X$X$X$X$X$X$X$X$X$X$X$X$X$X$X$X$X$X$X$X$X$X$X$X$X$X$X$X$X",
"$X$X$X$X$X$X$X$X$X$X$X$X$X$X$X$X$X$X$X$X$X$X$X$X$X$X$X$X$X$X$X$X$X$X$X$X$X$X$X$X$X$X$X$X$X$X$X$X$X$X$X$X$X$X$X$X$X$X$X$X$X$X$X$X",
"$X$X$X$X$X$X$X$X$X$X$X$X$X$X$X$X$X$X$X$X$X$X$X$X$X$X$X$X$X$X$X$X$X$X$X$X$X$X$X$X$X$X$X$X$X$X$X$X$X$X$X$X$X$X$X$X$X$X$X$X$X$X$X$X",
"$X$X$X$X$X$X$X$X$X$X$X$X$X$X$X$X$X$X$X$X$X$X$X$X$X$X$X$X$X$X$X$X$X$X$X$X$X$X$X$X$X$X$X$X$X$X$X$X$X$X$X$X$X$X$X$X$X$X$X$X$X$X$X$X",
"$X$X$X$X$X$X$X$X$X$X$X$X$X$X$X$X$X$X$X$X$X$X$X$X$X$X$X$X$X$X$X$X$X$X$X$X$X$X$X$X$X$X$X$X$X$X$X$X$X$X$X$X$X$X$X$X$X$X$X$X$X$X$X$X",
"$X$X$X$X$X$X$X$X$X$X$X$X$X$X$X$X$X$X$X$X$X$X$X$X$X$X$X$X$X$X$X$X$X$X$X$X$X$X$X$X$X$X$X$X$X$X$X$X$X$X$X$X$X$X$X$X$X$X$X$X$X$X$X$X",
"$X$X$X$X$X$X$X$X$X$X$X$X$X$X$X$X$X$X$X$X$X$X$X$X$X$X$X$X$X$X$X$X$X$X$X$X$X$X$X$X$X$X$X$X$X$X$X$X$X$X$X$X$X$X$X$X$X$X$X$X$X$X$X$X",
"$X$X$X$X$X$X$X$X$X$X$X$X$X$X$X$X$X$X$X$X$X$X$X$X$X$X$X$X$X$X$X$X$X$X$X$X$X$X$X$X$X$X$X$X$X$X$X$X$X$X$X$X$X$X$X$X$X$X$X$X$X$X$X$X",
"$X$X$X$X$X$X$X$X$X$X$X$X$X$X$X$X$X$X$X$X$X$X$X$X$X$X$X$X$X$X$X$X$X$X$X$X$X$X$X$X$X$X$X$X$X$X$X$X$X$X$X$X$X$X$X$X$X$X$X$X$X$X$X$X",
"$X$X$X$X$X$X$X$X$X$X$X$X$X$X$X$X$X$X$X$X$X$X$X$X$X$X$X$X$X$X$X$X$X$X$X$X$X$X$X$X$X$X$X$X$X$X$X$X$X$X$X$X$X$X$X$X$X$X$X$X$X$X$X$X",
"$X$X$X$X$X$X$X$X$X$X$X$X$X$X$X$X$X$X$X$X$X$X$X$X$X$X$X$X$X$X$X$X$X$X$X$X$X$X$X$X$X$X$X$X$X$X$X$X$X$X$X$X$X$X$X$X$X$X$X$X$X$X$X$X",
"$X$X$X$X$X$X$X$X$X$X$X$X$X$X$X$X$X$X$X$X$X$X$X$X$X$X: $X$X$X$X$X$X$X$X$X$X$X$X$X$X$X$X$X$X$X$X$X$X$X$X$X$X$X$X$X$X$X$X$X$X$X$X$X",
"$X$X$X$X$X$X$X$X$X$X$X$X$X$X$X$X$X$X$X$X$X$X$X$X$X$Xm w.E $X$X$X$X$X$X$X$X$X$X$X$X$X$X$X$X$X$X$X$X$X$X$X$X$X$X$X$X$X$X$X$X$X$X$X",
"$X$X$X$X$X$X$X$X$X$X$X$X$X$X$X$X$X$X$X$X$X$X$X$X$X$XO t.c.i.Y $X$X$X$X$X$X$X$X$X$X$X$X$X$X$X$X$X$X$X$X$X$X$X$X$X$X$X$X$X$X$X$X$X",
"$X$X$X$X$X$X$X$X$X$X$X$X$X$X$X$X$X$X$X$X$X$X$X$X$X$X+ p.i.y.w.7.$X$X$X$X$X$X$X$X$X$X$X$X$X$X$X$X$X$X$X$X$X$X$X$X$X$X$X$X$X$X$X$X",
"$X$X$X$X$X$X$X$X$X$X$X$X$X$X$X$X$X$X$X$X$X$X$X$X$X$X-.s.i.8.8.7.q., $X$X$X$X$X$X$X$X$X$X$X$X$X$X$X$X$X$X$X$X$X$X$X$X$X$X$X$X$X$X",
"$X$X$X$X$X$X$X$X$X$X$X$X$X$X$X$X$X$X$X$X$X$X$X$X$X$Xi.i.8.8.2.2.8.q.s $X$X$X$X$X$X$X$X$X$X$X$X$X$X$X$X$X$X$X$X$X$X$X$X$X$X$X$X$X",
"$X$X$X$X$X$X$X$X$X$X$X$X$X$X$X$X$X$X$X$X$X$X$X$X$XY w.8.8.8.2.2.7.q.9.$X$X$X$X$X$X$X$X$X$X$X$X$X$X$X$X$X$X$X$X$X$X$X$X$X$X$X$X$X",
"$X$X$X$X$X$X$X$X$X$X$X$X$X$X$X$X$X$X$X$X$X$X$X$X$X%.1.1.q.w.y.8.8.w.q.U   $X$X$X$X$X$X$X$X$X$X$X$X$X$X$X$X$X$X$X$X$X$X$X$X$X$X$X",
"$X$X$X$X$X$X$X$X$X$X$X$X$X$X$X$X$X$X$X$X$X$X$X$X$XE :.q.r.c.i.w.w.7.q.E = $X$X$X$X$X$X$X$X$X$X$X$X$X$X$X$X$X$X$X$X$X$X$X$X$X$X$X",
"$X$X$X$X$X$X$X$X$X$X$X$X$X$X$X$X$X$X$X$X$X$X$X$X$XW e.c.n.a.i.i.w.7.>.E w $X$X$X$X$X$X$X$X$X$X$X$X$X$X$X$X$X$X$X$X$X$X$X$X$X$X$X",
"$X$X$X$X$X$X$X$X$X$X$X$X$X$X$X$X$X$X$X$X$X$X$X~ a.A.Z.n.a.u.u.8.8.,.$.L y $X$X$X$X$X$X$X$X$X$X$X$X$X$X$X$X$X$X$X$X$X$X$X$X$X$X$X",
"$X$X$X$X$X$X$X$X$X$X$X$X$X$X$X$X$X$X$X$X$X$Xp.A.A.Z.a.i.u.<.2.2.<.=.@.M y $X$X$X$X$X$X$X$X$X$X$X$X$X$X$X$X$X$X$X$X$X$X$X$X$X$X$X",
"$X$X$X$X$X$X$X$X$X$X$X$X$X$X$X$X$X$X$X$X$Xq.v.m.n.i.8.8.2.<.<.2.,.&.U M y g $X$X$X$X$X$X$X$X$X$X$X$X$X$X$X$X$X$X$X$X$X$X$X$X$X$X",
"$X$X$X$X$X$X$X$X$X$X$X$X$X$X$X$X$X$X$X$Xd t.c.t.w.1.,.,.,.2.,.=.&.%.I >.g.f.0.E $X$X$X$X$X$X$X$X$X$X$X$X$X$X$X$X$X$X$X$X$X$X$X$X",
"$X$X$X$X$X$X$X$X$X$X$X$X$X$X$X$X$X$X$X$XK q.q.q.1.,.,.,.,.,.,.*.%.&.t.l.h.g.0.3.U   $X$X$X$X$X$X$X$X$X$X$X$X$X$X$X$X$X$X$X$X$X$X",
"$X$X$X$X$X$X$X$X$X$X$X$X$X$X$X$X$X$X$X$XK :.>.1.1.,.=.$.=.=.*.*.i.c.v.j.f.e.4.-.R & $X$X$X$X$X$X$X$X$X$X$X$X$X$X$X$X$X$X$X$X$X$X",
"$X$X$X$X$X$X$X$X$X$X$X$X$X$X$X$X$X$X$X$XU :.1.4._ ) =.,.;.>.w.b.b.v.k.v.d.{ ` R Y ; $X$X$X$X$X$X$X$X$X$X$X$X$X$X$X$X$X$X$X$X$X$X",
"$X$X$X$X$X$X$X$X$X$X$X$X$X$X$X$X$X$X$X$XH :.} T.~.R.V.4.p.c.m.m.v.j.g.H.~./.T.} f > $X$X$X$X$X$X$X$X$X$X$X$X$X$X$X$X$X$X$X$X$X$X",
"$X$X$X$X$X$X$X$X$X$X$X$X$X$X$X$X$X$X$X$XF ..(.|. X.X}.J.v.m.v.h.g.h.K.}.|.|.`.T...o $X$X$X$X$X$X$X$X$X$X$X$X$X$X$X$X$X$X$X$X$X$X",
"$X$X$X$X$X$X$X$X$X$X$X$X$X$X$X$X$X$X< y.l.~. X7     OX`.d.h.h.e.q.| `. X    ' _.L.w E $X$X$X$X$X$X$X$X$X$X$X$X$X$X$X$X$X$X$X$X$X",
"$X$X$X$X$X$X$X$X$X$X$X$X$X$X$X$X$XT m.C.N.[.OX      H. XJ.y.9.>.&.P. Xo.       XE./ 6.4.6 $X$X$X$X$X$X$X$X$X$X$X$X$X$X$X$X$X$X$X",
"$X$X$X$X$X$X$X$X$X$X$X$X$X$X$X$X5 k.v.k.L. XE.      3 oXR.;.*.%.@.R.oX2 .     /./...) ) m   $X$X$X$X$X$X$X$X$X$X$X$X$X$X$X$X$X$X",
"$X$X$X$X$X$X$X$X$X$X$X$X$X$X$X$XE g.h.t.I. XE..   . 3 oXQ.@.@.K L Q.oX1 X X @ ^._.X.) W g = $X$X$X$X$X$X$X$X$X$X$X$X$X$X$X$X$X$X",
"$X$X$X$X$X$X$X$X$X$X$X$X$X$X$X$XL 5.5.9.B.oXOX# @ # J. XT.L J J n Q.oXo.# # # OX_.] W G f - $X$X$X$X$X$X$X$X$X$X$X$X$X$X$X$X$X$X",
"$X$X$X$X$X$X$X$X$X$X$X$X$X$X$X$XL &.;.:.W #X+XN 1 1 oXoXj.H v L -.P.+XOX# #  .|.^.m D b y % $X$X$X$X$X$X$X$X$X$X$X$X$X$X$X$X$X$X",
"$X$X$X$X$X$X$X$X$X$X$X$X$X$X$X$Xn E &.&.E ).+X+X].@XoX[.b M q.l.c.e.@X@X@X].oX[.I.G b l y - $X$X$X$X$X$X$X$X$X$X$X$X$X$X$X$X$X$X",
"$X$X$X$X$X$X$X$X$X$X$X$X$X$X$X$Xt U I I U K {.+X+XoX'.Y y.c.b.c.h.f.f.@X+XoX}.U.D z l i y @ $X$X$X$X$X$X$X$X$X$X$X$X$X$X$X$X$X$X",
"$X$X$X$X$X$X$X$X$X$X$X$X$X$X$X$XF >.>.1.>.1.:.! B.) 5.c.v.c.h.g.0.9.-.E 6.x.L x Z z l u 0 $ X $X$X$X$X$X$X$X$X$X$X$X$X$X$X$X$X$X",
"$X$X$X$X$X$X$X$X$X$X$X$X$X$XR t.c.c.c.c.c.b.c.c.c.c.h.h.g.e.0.5.4.-.&.I L Z v Z z j u t m ) &.g   $X$X$X$X$X$X$X$X$X$X$X$X$X$X$X",
"$X$X$X$X$X$X$X$X$X$X$X$X$X>.l.v.v.b.v.v.c.h.h.d.M.| [ [ ] ( ^ ^ ^ ( ] [ | M.A A c h l M 4.9.) ! b   $X$X$X$X$X$X$X$X$X$X$X$X$X$X",
"$X$X$X$X$X$X$X$X$X$X$X$Xm 0.g.g.h.h.g.r.r.r.e.j.|._.~.E.E.E.R.R.E.~.~.(.].|.c c j z F -.4.4.! R Y : $X$X$X$X$X$X$X$X$X$X$X$X$X$X",
"$X$X$X$X$X$X$X$X$X$X$X$XL :.5.9.0.q.9.9.9.>.:.>.j.#X#XOX X.X X XXX#X@X@X XK c j z L -.3.:.~ P F m y $X$X$X$X$X$X$X$X$X$X$X$X$X$X",
"$X$X$X$X$X$X$X$X$X$X$X$Xn I Q -.-.-.-.&.Q $.@.#.#.S Q.+X+X@X@X@X@X@X@XF.c c c v P E -.-.I L D b l e $X$X$X$X$X$X$X$X$X$X$X$X$X$X",
"$X$X$X$X$X$X$X$X$X$X$X$Xl z Z Z V A A A S S S S +.+.C j W.+X@X@XXXG.j k j c H H U I I U H D z l i 0 $X$X$X$X$X$X$X$X$X$X$X$X$X$X",
"$X$X$X$X$X$X$X$X$X$X$X$Xt k k c c V C C C C C C C C C C c k j h j k j c v J H K K U H Z B z h h i 0 $X$X$X$X$X$X$X$X$X$X$X$X$X$X",
"$X$X$X$X$X$X$X$X$X$X$X$Xe j k k c c V V V C C C C V c V V c c k c V A A A J A A A Z Z Z k k h u t * $X$X$X$X$X$X$X$X$X$X$X$X$X$X",
"$X$X$X$X$X$X$X$X$X$X$X$X4 h j j j c c c c c c V c c c k j c c c c V Z Z A c V Z V V c k k h u u & $X$X$X$X$X$X$X$X$X$X$X$X$X$X$X",
"$X$X$X$X$X$X$X$X$X$X$X$X$X< h h k k k j k j k u r r t h k c c c c c k c V k k k k k k h h t q $X$X$X$X$X$X$X$X$X$X$X$X$X$X$X$X$X",
"$X$X$X$X$X$X$X$X$X$X$X$X$X$X$X, q q % o                 . + N p p p q q d a a a a w p 5 $X$X$X$X$X$X$X$X$X$X$X$X$X$X$X$X$X$X$X$X",
"$X$X$X$X$X$X$X$X$X$X$X$X$X$X$X$X$X$X$X$X$X$X$X$X$X$X$X$X$X$X$X$X$X$X$X$X$X$X$X$X$X$X$X$X$X$X$X$X$X$X$X$X$X$X$X$X$X$X$X$X$X$X$X$X",
"$X$X$X$X$X$X$X$X$X$X$X$X$X$X$X$X$X$X$X$X$X$X$X$X$X$X$X$X$X$X$X$X$X$X$X$X$X$X$X$X$X$X$X$X$X$X$X$X$X$X$X$X$X$X$X$X$X$X$X$X$X$X$X$X",
"$X$X$X$X$X$X$X$X$X$X$X$X$X$X$X$X$X$X$X$X$X$X$X$X$X$X$X$X$X$X$X$X$X$X$X$X$X$X$X$X$X$X$X$X$X$X$X$X$X$X$X$X$X$X$X$X$X$X$X$X$X$X$X$X",
"$X$X$X$X$X$X$X$X$X$X$X$X$X$X$X$X$X$X$X$X$X$X$X$X$X$X$X$X$X$X$X$X$X$X$X$X$X$X$X$X$X$X$X$X$X$X$X$X$X$X$X$X$X$X$X$X$X$X$X$X$X$X$X$X",
"$X$X$X$X$X$X$X$X$X$X$X$X$X$X$X$X$X$X$X$X$X$X$X$X$X$X$X$X$X$X$X$X$X$X$X$X$X$X$X$X$X$X$X$X$X$X$X$X$X$X$X$X$X$X$X$X$X$X$X$X$X$X$X$X",
"$X$X$X$X$X$X$X$X$X$X$X$X$X$X$X$X$X$X$X$X$X$X$X$X$X$X$X$X$X$X$X$X$X$X$X$X$X$X$X$X$X$X$X$X$X$X$X$X$X$X$X$X$X$X$X$X$X$X$X$X$X$X$X$X",
"$X$X$X$X$X$X$X$X$X$X$X$X$X$X$X$X$X$X$X$X$X$X$X$X$X$X$X$X$X$X$X$X$X$X$X$X$X$X$X$X$X$X$X$X$X$X$X$X$X$X$X$X$X$X$X$X$X$X$X$X$X$X$X$X",
"$X$X$X$X$X$X$X$X$X$X$X$X$X$X$X$X$X$X$X$X$X$X$X$X$X$X$X$X$X$X$X$X$X$X$X$X$X$X$X$X$X$X$X$X$X$X$X$X$X$X$X$X$X$X$X$X$X$X$X$X$X$X$X$X",
"$X$X$X$X$X$X$X$X$X$X$X$X$X$X$X$X$X$X$X$X$X$X$X$X$X$X$X$X$X$X$X$X$X$X$X$X$X$X$X$X$X$X$X$X$X$X$X$X$X$X$X$X$X$X$X$X$X$X$X$X$X$X$X$X",
"$X$X$X$X$X$X$X$X$X$X$X$X$X$X$X$X$X$X$X$X$X$X$X$X$X$X$X$X$X$X$X$X$X$X$X$X$X$X$X$X$X$X$X$X$X$X$X$X$X$X$X$X$X$X$X$X$X$X$X$X$X$X$X$X",
"$X$X$X$X$X$X$X$X$X$X$X$X$X$X$X$X$X$X$X$X$X$X$X$X$X$X$X$X$X$X$X$X$X$X$X$X$X$X$X$X$X$X$X$X$X$X$X$X$X$X$X$X$X$X$X$X$X$X$X$X$X$X$X$X",
"$X$X$X$X$X$X$X$X$X$X$X$X$X$X$X$X$X$X$X$X$X$X$X$X$X$X$X$X$X$X$X$X$X$X$X$X$X$X$X$X$X$X$X$X$X$X$X$X$X$X$X$X$X$X$X$X$X$X$X$X$X$X$X$X",
"$X$X$X$X$X$X$X$X$X$X$X$X$X$X$X$X$X$X$X$X$X$X$X$X$X$X$X$X$X$X$X$X$X$X$X$X$X$X$X$X$X$X$X$X$X$X$X$X$X$X$X$X$X$X$X$X$X$X$X$X$X$X$X$X",
"$X$X$X$X$X$X$X$X$X$X$X$X$X$X$X$X$X$X$X$X$X$X$X$X$X$X$X$X$X$X$X$X$X$X$X$X$X$X$X$X$X$X$X$X$X$X$X$X$X$X$X$X$X$X$X$X$X$X$X$X$X$X$X$X"
};
