/* XPM */
static char *result[] = {
/* columns rows colors chars-per-pixel */
"32 32 6 1 ",
"  c #585858",
". c #4B4C4F",
"X c #414141",
"o c #383737",
"O c #2D2D2D",
"+ c #1D1D1D",
/* pixels */
"OOOOO+O+OOOO++++OOOO++++++OOOO++",
"XXXoXXoO+     ..   XO    .  ..X+",
"XoooooO++ ..........X+ ..XX.X.oO",
"XoooOO+++ ....XX.XXXoO .XXoXoXoO",
"ooOooOO++ ..X..XX.Xo+.XXXo+o+.O+",
"XOooOoO++....XXXXXX+.O.oXXo+.XO+",
"oOoO+O+++ .XXX.XXXoOX.XXXXXo+.XO",
"oOOOO++++.X.XXXooXO.ooXoXoO+X+o+",
"OO++OO+++.XXXXoXooX+.oooOO+oOo++",
"O+O++++++XooOooOOOo+XOoOOO+O++++",
"+++++++++++OOO+++++O+O++O+O+++++",
"       .  .. ...X+XXXoXX+XoOooO+",
" .........XX..oXo+XoOOOO+o+oOO++",
" ..XXX.X.X.XXo+O++XooOoOO+XooO++",
".X..X...XXXX.oo+o+oOooO+O+oOOO++",
" ..XXXX..XoXooO+O+ooOOOO+oOO++++",
".XX.XXXoXoooXO+oO+OOO+O+oO+OO+++",
".XXXXXoooXoOooO+o+O+++O+O+++++O+",
"XooXoooOOoooOOOo++OO+O++++++O+++",
"++OO+O++OO+++++O++++++++++++++++",
"+XXXXoXoo+      .   oX.....X...X",
"OXooOOoOO+ .....X.. OXoXXX..XXXo",
"+XoOOOOO++ ..XX..XX.OoOoX.XooXoo",
"+oOOoOO+O+..X.XXXX.O.OoXXoooXoOO",
"+oooO+OO++ ..XooXoX.XOoXoXoooOo+",
"+OoOOO++O+.XXXXXooXXX.+oOOoOO+O+",
"+OO+++++++XooooOOo+OO++ooOOOOO++",
"++++++++++OO+O++O++++++++O+O++++",
"..XoOO..X....XOXXoO+XoOo++....X+",
".XoO.XooXXoXXoOXoO+o+XoO++.XXoX+",
".oO.XoXooOOoXoOXO+XOooOO++.XXXo+",
"XooOXooOOoOOooOoO+oOOOO+++Xoooo+"
};
