/* XPM */
static char *result[] = {
/* columns rows colors chars-per-pixel */
"32 32 8 1 ",
"  c #6EC59F",
". c #59B292",
"X c #4FAB90",
"o c #53A178",
"O c #4C9484",
"+ c #3E816B",
"@ c #396E59",
"# c #3B6655",
/* pixels */
"    .....   ......      ..XXXXX+",
" oooo.XXXXoOooOOOOOoXX.XXooooOo@",
" o......XoooOooOoo.XX.XXooooOOo@",
" .o Oo...XXooOOoXXXX..XoXoo OOo@",
" ..O+.oXX.XXoOOXoX.X.XXooooO+oo@",
" X......X..XOOoX..XX.Xooooooooo@",
" X.o.XX....ooOX.X.XXooooooOooOo#",
".XoX.o.oX...oo..XXXoooooOoooOOo#",
".XX.oooooX..oX.XX.oooXXOOooOOoo#",
".XXooXoXoo.XX...XX.oXXO+ooooOoo#",
".XooooXXXo.X..X.XXXXooXXooooooO#",
"..oXooX.Xo.XX.XXX..XoXXoooXoooO#",
" .XooXX.o..X.XXX..X.XXoooXoooOo#",
" ..oXX.o..X...XX..XX.oooXXoooXo#",
" ..XoX...XXX..X..XXX.o..X.OoooX#",
" o..oXX.XXX.X...XXX.oooX.oOOoo+#",
" o....X.XoXXXXX..X.ooXX..oXooO+#",
" oo.....Xo..XXXX.XooXX..oXooO++#",
" o..XX.XXOo..XXXXX...oXX.XOOo+O@",
" ..XXoX.oOoX.XXX..X...oXXOOXXoO@",
" .XooooXXoOo..X..XXo.XXoOOOXooO@",
" XoXooXX..XooXoXX..O..ooO+OXooo@",
".ooooooXXooXoo.X.XoOoXoO++oooXo@",
".oXoXXooXXoo.....XoOXOOO+ooX..o@",
".ooXXoooooooXX..XXOoXXo+oo...XX#",
".OoooooXooOooXX.XOOOXXooX..XXXX#",
".OOXXoooXooOoOo.ooOOOooX..XXX.O#",
".OX OXooooOOOoX.oOOOooOX.XX O.O#",
" OXO+XOooooO+OXOOoOOOOo..XXO+XX@",
" oXXoOOOoOOoO+ooOO+OO+..XX.XXOX@",
".OOoOOoO+O+OO++Oo++O+OOoX..OOOO#",
".@@@@@@#####@@########@@@@##@@##"
};
