/* XPM */
static char *result[] = {
/* columns rows colors chars-per-pixel */
"32 32 6 1 ",
"  c #3C85E5",
". c #3F6CE5",
"X c #405CE2",
"o c #314FDD",
"O c #2143A4",
"+ c #1C3788",
/* pixels */
"ooooOOOoOOOoXoooooOO+.oOOOOo  .o",
"ooOOXooOOOOooX.ooo++ooooOOoo.O..",
"oOOX..  oOooX.oooooooooOoo..OOO.",
"OOX..... ooXXoooOOOoooooOoo..O..",
"OOX..oO.. oooooO....OoOOOOooXX.o",
"Oo .oOO.. OoooO...o..OO++OOooooo",
"oo. .... o+OoO...oooO.o+++Ooo...",
".oo.    .o++Oo ...oO..oO+Ooo..oo",
"O.oo....oO+OOo.  .... ooOOo .ooO",
"..oooooOOOOOOOo.     .oOOoo ..OO",
"..oOOo+oOo ...oo..oo.ooOoOOo  ..",
".o+OOOO+o..oO..oooooooOOOooooo  ",
"ooo+O+++ .oooO..oooOoOO....oOooO",
"+ooooo+o ..oo.. oo+o+O..oo..oOOO",
"o...XXoo. .... Xo+O+O .oooO..o++",
"..XooXXo..    XX+O++o...oO...ooo",
".XOoOOX.X..XoXXo+OOOOo .... ooOo",
" XXOOXX.oXXoooo+OOOOOoX.   XoOOO",
"X XXXX XoXooo ....o+OOoXXXooO+Oo",
"oX   .XXOooo...oo..oOO+ooooO+OOo",
"ooXXXXXoOOoo .OOooO.oO++OoOo++oO",
"oooXXXoOOooo ..OOO..o+++OOO++OOo",
"ooXoXooOOoooX .....o+O+++oooo+Oo",
"ooooooOOooXooX    XoOOO+ooOOoooO",
"oooOoOOo....ooXXXXo+OOOXoOOOOoXo",
"OooOOOo..oo. ooXooo+OOOX.oOOoXXo",
"OoOoO+.OooOo..oooo+OOOOoX..oXooo",
"oOOO++..OOO.. oooo+O+OOOoooooooo",
"ooOOO+o..... XoooX++++O+Oooooooo",
"OOOOOO+o    .XOoooo++++++OOooooo",
"oOOOOOOoooo.o.XoooXo+++++OOOoOoO",
"ooOOOOoooOoooo.OoXXX.o++OOoOOOOO"
};
